<?xml version="1.0" encoding="utf-8"?>
<!-- Generator: Adobe Illustrator 27.8.0, SVG Export Plug-In . SVG Version: 6.00 Build 0)  -->
<svg version="1.1" id="Camada_1" xmlns="http://www.w3.org/2000/svg" xmlns:xlink="http://www.w3.org/1999/xlink" x="0px" y="0px"
	 viewBox="0 0 3.56 11.74" style="enable-background:new 0 0 3.56 11.74;" xml:space="preserve">
<style type="text/css">
	.st0{fill:#3085FE;}
	.st1{fill:#FE4540;}
	.st2{fill:#FDCE0A;}
	.st3{fill:#FE4C3C;}
	.st4{fill:#0CB965;}
	.st5{fill:#0FBB5E;}
	.st6{fill:#FE483E;}
	.st7{fill:#FCCC04;}
	.st8{fill:#11BB59;}
	.st9{fill:#F7CC06;}
	.st10{fill:#FCCD06;}
	.st11{fill:#0BB76C;}
	.st12{fill:#0AB572;}
	.st13{fill:#0BB868;}
	.st14{fill:#FEC90A;}
	.st15{fill:#FC494D;}
	.st16{fill:#FEC40B;}
	.st17{fill:#268AF2;}
	.st18{fill:#ECCA04;}
	.st19{fill:#FC4748;}
	.st20{fill:#09B477;}
	.st21{fill:#FD4644;}
	.st22{fill:#26BE3E;}
	.st23{fill:#FEB90C;}
	.st24{fill:#D2C903;}
	.st25{fill:#C8C803;}
	.st26{fill:#14BB55;}
	.st27{fill:#F0CB05;}
	.st28{fill:#2A88F7;}
	.st29{fill:#FEBD0B;}
	.st30{fill:#FE6D29;}
	.st31{fill:#1D8FE4;}
	.st32{fill:#FEB00D;}
	.st33{fill:#238BEC;}
	.st34{fill:#FDB60C;}
	.st35{fill:#DCC903;}
	.st36{fill:#FEA212;}
	.st37{fill:#46C021;}
	.st38{fill:#FE672C;}
	.st39{fill:#ACC601;}
	.st40{fill:#FEC00B;}
	.st41{fill:#208DE9;}
	.st42{fill:#3ABF29;}
	.st43{fill:#2D86FA;}
	.st44{fill:#FDAB0F;}
	.st45{fill:#5FC212;}
	.st46{fill:#1198CC;}
	.st47{fill:#FE5039;}
	.st48{fill:#0BA2B2;}
	.st49{fill:#08AE8C;}
	.st50{fill:#FE5835;}
	.st51{fill:#2CBE37;}
	.st52{fill:#17BC51;}
	.st53{fill:#09A99A;}
	.st54{fill:#34BF2F;}
	.st55{fill:#0E9AC7;}
	.st56{fill:#BDC702;}
	.st57{fill:#78C309;}
	.st58{fill:#23BD42;}
	.st59{fill:#FD7227;}
	.st60{fill:#4EC11B;}
	.st61{fill:#1CBC4B;}
	.st62{fill:#09A89F;}
	.st63{fill:#FA4B52;}
	.st64{fill:#FDA710;}
	.st65{fill:#1595D4;}
	.st66{fill:#FE5437;}
	.st67{fill:#0AA4AA;}
	.st68{fill:#E4CA03;}
	.st69{fill:#09AF84;}
	.st70{fill:#20BD45;}
	.st71{fill:#B6C702;}
	.st72{fill:#FE9816;}
	.st73{fill:#40C025;}
	.st74{fill:#FD7725;}
	.st75{fill:#09B17C;}
	.st76{fill:#08AB94;}
	.st77{fill:#FE9218;}
	.st78{fill:#0AA6A5;}
	.st79{fill:#FE9C14;}
	.st80{fill:#FD5C32;}
	.st81{fill:#0C9EBD;}
	.st82{fill:#FE632F;}
	.st83{fill:#1793DA;}
	.st84{fill:#30BF33;}
	.st85{fill:#98C501;}
	.st86{fill:#F2CA06;}
	.st87{fill:#19BC4E;}
	.st88{fill:#09B182;}
	.st89{fill:#FD6030;}
	.st90{fill:#1EBC48;}
	.st91{fill:#FE7C23;}
	.st92{fill:#6EC20C;}
	.st93{fill:#FE841F;}
	.st94{fill:#0C9EB7;}
	.st95{fill:#FE8021;}
	.st96{fill:#54C117;}
	.st97{fill:#08AC90;}
	.st98{fill:#0D9BC2;}
	.st99{fill:#A3C400;}
	.st100{fill:#1A91DF;}
	.st101{fill:#1892DC;}
	.st102{fill:#8CC402;}
	.st103{fill:#59C115;}
	.st104{fill:#93C401;}
	.st105{fill:#FE891C;}
	.st106{fill:#7FC306;}
	.st107{fill:#6FC10C;}
	.st108{fill:#FC8D1A;}
	.st109{fill:#93C301;}
	.st110{fill:#A0C500;}
	.st111{fill:#FD8D19;}
	.st112{fill:#59BE1A;}
	.st113{fill:#1A91E0;}
	.st114{fill:#8BC402;}
	.st115{fill:#FACB07;}
	.st116{fill:#0C9DB7;}
	.st117{fill:#FCCC02;}
	.st118{fill:#1297D1;}
	.st119{fill:#1495D3;}
	.st120{fill:#83C405;}
	.st121{fill:#9EC400;}
</style>
<path class="st0" d="M-169.59,11.74c-22.12,0.05-44.25,0.07-66.37,0.21c-2.72,0.02-3.8-0.7-3.77-3.62
	c0.12-14.47,0.2-28.94-0.04-43.41c-0.07-4.18,2.15-3.99,5.01-3.98c23.96,0.05,47.91,0.03,71.87,0.03c14.14,0,28.28,0.14,42.42-0.09
	c3.82-0.06,5.11,1.13,5.6,4.86c3.72,28.26,1.45,55.7-10.58,81.91c-2.91,4.52-3.73,4.54-6.85,0.11c-6.8-9.63-14.17-18.83-21.31-28.2
	c-1.73-2.27-3.59-5.03-7.31-3.89c-1.95-0.65-3.99-0.39-5.98-0.66c-0.51-0.11-0.95-0.34-1.35-0.68
	C-169.08,13.65-168.47,12.25-169.59,11.74z"/>
<path class="st1" d="M-197.38-81.15c-16.17-10.46-33.95-13.96-52.94-12.16c-0.36-3,2.83-2.18,4.25-4.09
	c-5.2-5.3-10.51-10.66-14.8-16.93c-4.77-6.98-9.1-14.18-12.77-21.79c-0.78-1.61-1.79-3.25-0.68-5.14
	c21.35-6.45,42.91-6.38,64.48-1.61c18.74,4.14,35.81,12,50.51,24.58c-1.82,2.49-4.85,1.9-7.28,2.69
	c-14.04,4.57-23.03,14.01-27.76,27.8C-195.15-85.49-195.22-82.84-197.38-81.15z"/>
<path class="st2" d="M-369.39-35.76c0.15-5.06,1.52-9.85,3.18-14.57c0.56-1.02,0.93-2.15,1.19-3.23c0.79-3.28,2.86-3.35,5.27-2.19
	c2.08,1,3.88,2.5,5.73,3.92c9.89,7.61,20.61,13.85,31.9,19.13c2.38,1.11,5.02,2.07,5.3,5.32c-1.61,5.22-0.68,10.61-1.11,15.91
	c-3.94,5.85-10.17,4.01-15.66,4.72c-10.51-4.73-20.86-9.77-30.64-15.93c-2.42-1.53-4.5-3.29-6.11-5.63c0.02-0.33,0.05-0.67,0.07-1
	C-369.12-31.36-370.35-33.71-369.39-35.76z"/>
<path class="st3" d="M-259.31-91.39c-3.01,0.97-6.01,1.95-9.02,2.92c-8.39-0.99-13.65-7.27-19.47-12.18
	c-7.82-6.61-15.26-13.77-21.5-22.02c-0.63-0.83-1.11-1.64-1.18-2.67c6.72-4.76,13.88-8.66,21.81-11.04
	c3.52-1.44,5.73,0.17,7.23,3.19c6.36,12.78,13.95,24.74,23.12,35.71C-256.63-95.49-255.03-92.75-259.31-91.39z"/>
<path class="st4" d="M-203.05,112.71c-8.11,2.54-16.38,4.09-24.91,3.96c-15.13,1.22-13.6,0.85-13.57-11.55
	c0.03-11.22-0.87-22.49,0.82-33.66c1.72-4.2,4.15-2.11,6.13-0.46c5.22,4.38,9.49,9.69,13.72,14.98
	C-214.17,94.37-208.64,103.57-203.05,112.71z"/>
<path class="st5" d="M-239.33,69.6c0,13.4-0.01,26.8,0,40.2c0,6.72,0.01,6.72,6.9,6.77c1.49,0.01,2.98,0.06,4.47,0.09
	c-12.58,1.62-25.04,0.97-37.38-2.01c-4.66-1.54-5.55-3.1-3.55-7.54c3.55-7.88,8.35-15.03,13.48-21.97
	c4.95-6.69,11.27-12.35,15.18-19.85c0.58-0.09,1.07,0.08,1.46,0.52C-238.03,67.23-238.01,68.51-239.33,69.6z"/>
<path class="st6" d="M-259.31-91.39c2.01-1.68,1.02-3.17-0.3-4.63c-9.76-10.79-17.28-23.05-23.61-36.09
	c-1.15-2.37-2.41-4.4-5.44-4.27c4.48-2.49,9.32-3.95,14.34-4.88c5.63,9.52,10.43,19.52,17.12,28.44c3.82,5.09,8.45,9.28,12.7,13.89
	c0.97,1.05,2.83,1.91,2.35,3.51c-0.55,1.81-2.54,0.98-3.93,1.1c-1.48,0.13-3-0.07-4.25,1C-253.32-92.67-256.31-92.03-259.31-91.39z"
	/>
<path class="st7" d="M-334.29-8.35c5.28-1.04,10.78-0.92,15.86-3.01c1.46,2.44,0.42,5.15,0.8,7.73c0.35,2.43-2.06,3.1-3.88,3.86
	c-6.42,2.67-13.07,4.69-19.42,7.58c-6.51,2.95-12.59,6.59-18.64,10.33c-2.52,1.56-5.35,3.33-7.66-0.49
	c-1.91-5.5-2.94-11.16-3.01-16.99c4.52,4.21,8.37,1.28,12.41-1.03c5.46-3.13,11.19-5.73,17.22-7.57
	C-338.59-8.57-336.45-9.12-334.29-8.35z"/>
<path class="st8" d="M-240.32,65.73c1.88,7.79-5.46,10.36-8.87,14.93c-6.48,8.67-12.76,17.38-17.73,27.03
	c-1.53,2.97-1.79,5.29,1.59,6.98c-4.15-0.38-8.2-1.19-12.02-2.93c-2.04-1.43-1.88-3.17-0.95-5.22
	c6.12-13.51,14.15-25.73,23.88-36.93C-250.38,64.92-245.81,64.14-240.32,65.73z"/>
<path class="st9" d="M-367.23,17.64c1.78,1.07,3.35,0.82,5.05-0.4c12.43-8.9,26.42-14.55,40.8-19.35c5.39-1.8,2.21-6.1,2.95-9.26
	c0.33-5.66-0.36-11.39,1.09-16.98c-0.29-0.92,0.15-1.13,0.96-0.99c-2.04,11.32-0.33,22.65-0.01,33.97
	c-2.32,4.21-7.09,4.04-10.74,5.48c-11.47,4.53-22,10.57-31.88,17.83c-2.01,1.48-3.69,2.35-5.31-0.31l0.01,0.04
	c-0.67-2.01-0.87-4.16-1.91-6.05C-367.04,20.43-367.39,19.1-367.23,17.64z"/>
<path class="st10" d="M-334.29-8.35c-5.57,3.28-12.26,3.83-17.78,7.34c-2.78,1.77-5.89,2.99-8.71,4.7
	c-6.63,4.01-6.89,3.97-9.47-3.03c-0.04-0.54-0.09-1.08-0.13-1.63c-0.83-3.2-0.23-6.46-0.36-9.68c3.48-3.55,7.22-0.16,10.83-0.3
	c1.47-0.06,3.06,0.94,4.69,1c0.98,0,1.96-0.23,3.22-0.23c-4.34-3.66-9.47-5.66-13.92-8.72c-1.96-1.35-4.52-2.26-4.84-5.19
	c0-1.23-0.14-2.47,0.38-3.64l-0.16-0.31c0,0,0.21-0.28,0.21-0.28c7.76,4.27,15.65,8.34,23.24,12.89
	C-342.89-12.93-337.55-12.49-334.29-8.35z"/>
<path class="st11" d="M-193.15,109.7c-1.86,1.18-3.9,1.77-6.08,1.95c-2.9,0.48-4.11-1.57-5.24-3.59
	c-7.35-13.12-16.52-24.88-26.73-35.86c-1.59-1.71-3.16-3.49-2.68-6.13c0.44-1.17,1.64-0.82,2.46-1.22c1.68-0.11,3.37-0.23,5.05-0.34
	c5.79,1.27,8.12,6.59,11.46,10.43c7.7,8.84,14.2,18.63,20.17,28.74C-193.63,105.55-192.59,107.4-193.15,109.7z"/>
<path class="st12" d="M-193.15,109.7c-4.86-7.32-9.77-14.6-14.56-21.97c-5.44-8.38-12.71-15.27-18.68-23.23
	c3.01-0.61,6.01-1.21,9.02-1.82c11.85,13.81,22.4,28.56,32.11,43.94C-187.67,108.2-190.28,109.3-193.15,109.7z"/>
<path class="st13" d="M-233.34,65.71c3.95,6.55,9.89,11.45,14.51,17.49c6.34,8.29,12.54,16.61,17.31,25.93
	c0.5,0.98,1.51,1.69,2.28,2.52c-1.1,0.96-2.45,1.06-3.82,1.07c-3.04,0.09-4.14-2.05-5.44-4.32c-8.33-14.47-18.05-27.85-30.84-38.79
	c0-1.28,0-2.56,0-3.84C-237.34,64.7-235.34,64.79-233.34,65.71z"/>
<path class="st14" d="M-316.38-29.32c-0.32,0.33-0.64,0.66-0.96,0.99c-14.46-5.89-27.81-13.68-40.07-23.37
	c-5.25-4.15-5.35-4.02-8.8,1.38c0.59-3.9,1.91-7.56,3.69-11.07c2.92-1.87,5.13-0.04,7.1,1.64c10.49,8.96,22.11,16.16,34.46,22.23
	c3.03,1.49,6.16,2.97,4.71,7.35C-316.07-29.86-316.12-29.58-316.38-29.32z"/>
<path class="st15" d="M-181.08-82.2c-2.05,2.64-4.35,5.03-7.05,7.02c-4.72-1.52-3.64-5.59-2.92-8.51
	c1.92-7.78,5.39-14.78,11.89-20.08c5.8-4.73,12.19-7.77,19.54-8.88c2.84-0.43,5.48-0.39,5.36,3.63c-1.76,2.21-3.46,4.49-6.11,5.74
	C-170.33-99.26-178.58-93.55-181.08-82.2z"/>
<path class="st16" d="M-316.24-30.18c0.01-1.86-0.87-3.1-2.56-3.9c-14.35-6.73-27.69-15.02-39.75-25.34
	c-1.09-0.93-2.63-1.33-3.96-1.98c0.23-2.18,1.28-4.03,2.3-5.9c3.03-1.05,4.61,1.34,6.35,2.91c10.88,9.84,22.75,18.14,36.35,23.81
	c2.76,1.15,3.15,3.1,2.34,5.64C-315.19-33.27-315.29-31.63-316.24-30.18z"/>
<path class="st17" d="M-168.13,13.58c0.25,0.02,0.51,0.05,0.76,0.06c5.82,0.14,8.41,4.87,11.4,8.56
	c9.07,11.19,17.47,22.9,25.99,34.52c-0.41,1.51-1.12,2.85-2.28,3.92c-2.34,2.68-4.23,1.17-5.65-0.87
	c-9.2-13.23-19.09-25.93-29.19-38.47C-168.85,19.12-169.81,16.42-168.13,13.58z"/>
<path class="st18" d="M-315.1,6.47c1.93,1.72,0.1,4.51,1.79,6.3c1.18,4.09-2.73,4.36-4.59,5c-13.93,4.82-26.48,11.77-36.91,22.31
	c-0.85,0.86-1.87,1.36-3.12,1.27c-0.5-0.13-0.94-0.37-1.32-0.72c-1.52-2.47-2.78-5.06-3.34-7.93c3.56-0.6,6.15-2.91,8.81-5.07
	c9.4-7.61,20.32-12.34,31.49-16.54C-319.47,10.03-316.98,8.82-315.1,6.47z"/>
<path class="st19" d="M-154.26-109.03c-1.01-1.88-2.54-2.33-4.59-1.92c-15.02,3.01-25.56,11.11-29.83,26.26
	c-0.89,3.17-1.58,6.45,0.54,9.51c-3.39,0.84-4.34-2.38-6.37-3.81c-1.49-2.92-0.63-5.73,0.16-8.65c4.78-17.81,24.22-30.41,37.3-28.77
	C-155.63-114.14-148.64-113.96-154.26-109.03z"/>
<path class="st20" d="M-185.26,106.62c-2.86,0.24-4.12-1.81-5.28-3.83c-7.56-13.12-17-24.87-26.64-36.46
	c-1.13-1.35-1.8-2.34-0.18-3.65c1.24-0.73,2.55-1.17,4.01-1.09c10.99,12.26,20.45,25.65,29.18,39.58c0.95,1.51,1.63,2.87,0.91,4.61
	C-183.92,106.07-184.59,106.35-185.26,106.62z"/>
<path class="st21" d="M-157.04-116.42c-2.58,2.59-6.24,1.93-9.31,3.09c-14.81,5.59-24.46,15.54-27.17,31.53
	c-0.16,0.96-0.65,1.88-0.98,2.81c-0.96-0.72-1.92-1.44-2.89-2.16c-0.73-7.26,3.08-13.13,6.61-18.73
	c6.15-9.77,15.22-15.94,26.57-18.65c1.75-0.42,3.27,0,4.89,0.23C-158.29-118-157.56-117.34-157.04-116.42z"/>
<path class="st22" d="M-297.61,103.74c-0.9-0.42-1.79-0.84-2.69-1.26c-1.41-1.89-0.8-3.85,0.12-5.59
	c6.8-12.95,13.56-25.94,23.06-37.22c1.08-1.29,1.88-2.77,3.93-2.11c1.58,0.11,2.66,1.19,3.9,1.97c1.06,1.98-0.59,2.96-1.53,4.25
	c-8.48,11.72-16.87,23.51-22.4,37.02C-294.01,102.71-295.08,104.36-297.61,103.74z"/>
<path class="st23" d="M-359.22-69.31c0.46-2.26,1.61-4.17,2.97-5.98c3.15-3.42,4.37-3.62,7.61-0.29
	c5.45,5.6,11.14,10.91,17.56,15.34c4.89,3.38,9.82,6.74,15.28,9.19c1.85,0.83,3.55,1.83,4.5,3.73c0.46,2.42-0.8,4.32-1.88,6.28
	c-8.69-5.41-18.08-9.65-26.24-15.98c-4.47-3.47-8.71-7.16-12.93-10.9c-1.19-1.05-2.19-2.77-4.19-1.37
	C-357.44-68.88-358.33-68.67-359.22-69.31z"/>
<path class="st24" d="M-311.31,17.8c1.44,0.84,1.72,2.31,2.05,3.76c0.1,2.82-1.68,3.92-4.05,4.72
	c-12.97,4.37-23.88,11.88-33.16,21.89c-1.79,1.93-3.43,4.77-6.97,3.51c-1.38-1.45-2.42-3.08-2.84-5.07
	c6.52-8.25,14.54-14.63,23.84-19.53C-325.61,23.48-318.41,20.77-311.31,17.8z"/>
<path class="st25" d="M-353.44,51.69c3.26-2.08,5.67-5.09,8.34-7.8c8.63-8.76,18.71-15.15,30.4-18.96c2.11-0.69,3.89-1.81,5.44-3.36
	c1.62,0.93,0.58,3.09,1.93,4.14c0.23,2.65-2.07,2.73-3.61,3.26c-14.28,4.96-26.22,13.23-35.6,25.09c-2.3,2.9-4.04,2.2-5.79-0.42
	C-352.7,52.99-353.07,52.34-353.44,51.69z"/>
<path class="st26" d="M-233.34,65.71c-2,0.02-4,0.03-6,0.05c0,0-0.5-0.04-0.5-0.04s-0.5,0.02-0.5,0.02
	c-5.15-0.96-8.96,0.66-12.57,4.74c-9.98,11.28-17.96,23.74-24.11,37.43c-0.57,1.27-0.88,2.49-0.36,3.83c-1.45,0-2.76-0.45-3.96-1.25
	c-1.71-1.57-1.08-3.25-0.28-4.97c6.31-13.51,14.29-25.93,24-37.26c1.46-1.7,3.32-2.66,5.25-3.58c6.97,0.05,13.94,0.11,20.91,0.16
	C-232.07,65.13-232.7,65.42-233.34,65.71z"/>
<path class="st27" d="M-315.1,6.47c-0.02,2.97-1.22,4.46-4.34,5.56c-13.29,4.68-26.04,10.51-36.74,20c-2.02,1.79-4,3.05-6.41,0.66
	c-0.24-0.69-0.48-1.37-0.72-2.06c9.78-7.27,19.65-14.44,31.12-18.84c5.55-2.13,10.76-5.61,17.09-5.3L-315.1,6.47z"/>
<path class="st28" d="M-129.98,56.72c-2.15,0.69-2.9-0.98-3.89-2.28c-9.34-12.21-18.73-24.4-28.01-36.66
	c-1.48-1.96-3.62-2.83-5.49-4.14c2.33,0,4.66,0,7,0c5.03,2.41,7.53,7.26,10.82,11.33c7.48,9.24,14.68,18.69,21.19,28.65
	C-128.41,54.91-129.1,55.87-129.98,56.72z"/>
<path class="st29" d="M-357.28-70.31c1.43-4.66,3.45-2.07,5.14-0.31c7.98,8.28,17.17,14.97,27.05,20.76
	c2.57,1.5,5.27,2.77,7.93,4.11c2.02,1.01,3.63,2.32,3.98,4.71c0,1.1-0.22,2.12-1.03,2.94c-5.42-3.85-11.73-6.04-17.38-9.52
	c-8.68-5.35-16.58-11.65-24.2-18.35C-357.15-67.18-358.04-68.43-357.28-70.31z"/>
<path class="st30" d="M-329.64-110.41c0.74-1.35,1.85-2.28,3.22-2.93c2.1-0.91,3.44,0.35,4.74,1.68
	c10.96,11.2,22.11,22.2,34.35,32.04c0.24,0.19,0.31,0.57,0.41,0.89c0.06,0.5-0.07,0.95-0.4,1.34c-1.32,1.32-2.08,3.22-4.05,3.87
	c-12.45-11.2-24.81-22.51-36.39-34.63C-328.43-108.86-329.33-109.39-329.64-110.41z"/>
<path class="st31" d="M-136.15,66.67c-0.35,1.26-1.04,2.27-2.16,2.96c-2.58,1.49-3.94-0.18-5.25-2.02
	c-1.71-2.41-3.25-4.96-5.76-6.68c-1.49-1.27-2.35-2.99-3.37-4.59c-0.7-3.06-2.98-5.08-4.88-7.35c-3.63-5.93-8.12-11.22-12.57-16.51
	c-1.56-1.85-2.74-3.7-2.39-6.22c0.34-2.02,1.01-3.92,2.16-5.63C-159.5,36.37-147.41,51.21-136.15,66.67z"/>
<path class="st32" d="M-308.25-52.2c-0.3,1.47-0.61,2.93-2.08,3.75c-11.55-4.86-21.84-11.71-31.08-20.08
	c-4.16-3.77-8.18-7.72-12.04-11.81c0.37-0.66,0.74-1.31,1.11-1.97c2.11-3.43,4.47-2.99,6.71-0.26
	c9.63,11.74,22.18,19.71,35.03,27.31C-309.4-54.55-307.59-54.32-308.25-52.2z"/>
<path class="st33" d="M-168.13,13.58c-0.79,5.89,4.09,8.81,6.99,12.52c8.03,10.28,15.92,20.65,23.59,31.21
	c1.3,1.79,2.19,4.35,5.29,3.34c-0.21,1.29-0.9,2.26-1.94,3.01c-3.2,3.25-4.91,0.04-6.18-1.87c-3.3-4.95-6.8-9.73-10.34-14.51
	c-4.91-6.63-10.13-13.02-15.08-19.62c-2.23-2.98-5.29-5.74-3.61-10.14c-0.23-1.92,0.94-3.89-0.18-5.78
	C-169.11,12.35-168.62,12.97-168.13,13.58z"/>
<path class="st34" d="M-353.44-80.35c1.96-0.86,3.1,0.42,4.25,1.64c8.56,9.06,17.89,17.18,28.66,23.57
	c3.49,2.07,8.05,2.55,10.2,6.67c-0.32,0.38-0.65,0.76-0.97,1.13c-14.39-5.96-26.74-14.86-37.54-26c-2.02-2.09-4-4.87-7.41-1.97
	C-355.83-77.27-354.84-78.92-353.44-80.35z"/>
<path class="st35" d="M-311.31,17.8c-0.83,2.28-2.81,3.19-4.85,3.92c-10.67,3.85-20.52,9.18-29.52,16.12
	c-3.64,2.81-5.85,7.33-10.6,8.77c-1.4-1.8-2.46-3.76-2.97-5.99c0.32-0.01,0.65-0.01,0.97-0.01c1.36,0.62,2.55,0.43,3.61-0.67
	c10.56-10.92,23.49-17.88,37.67-22.86c2-0.7,3.41-0.79,4.99,0.44C-311.7,17.43-311.47,17.52-311.31,17.8z"/>
<path class="st36" d="M-303.91-60.11c0.04,1.95-1.02,3.31-2.4,4.5c-8.78-5.27-17.63-10.37-25.47-17.1
	c-4.19-3.6-7.91-7.54-11.27-11.83c-1.47-1.88-3.22-3.08-5.4-3.8c0.54-1.65,1.59-2.94,2.86-4.06c3.17-1.67,5.2,0.42,6.66,2.54
	c7.03,10.22,17.12,16.99,26.9,24.08C-309.36-63.85-305.13-64.16-303.91-60.11z"/>
<path class="st37" d="M-314.74,93.75c-1.2-0.32-2.15-1-2.86-2.01c6.18-13.99,13.38-27.39,23.29-39.17c2.65-2.08,5.83-2.3,9-2.56
	c0.65,0.59,1.31,1.18,1.96,1.77c0.29,1.22-0.41,2.04-1.39,2.27c-4.73,1.08-6.69,5.07-8.99,8.58c-6.02,9.19-11.67,18.62-15.98,28.75
	C-310.79,93.87-312.25,94.7-314.74,93.75z"/>
<path class="st38" d="M-287.31-78.3c-4.38-2.17-7.57-5.87-11.32-8.85c-9.22-7.34-16.96-16.23-25.42-24.37
	c-0.71-0.68-1.57-1.22-2.35-1.82c0.43-1,1.17-1.64,2.22-1.91c2.58-1.54,3.93,0.47,5.42,1.92c5.1,4.96,10.04,10.08,15.09,15.09
	c5.28,5.23,10.8,10.18,16.7,14.71C-283.76-81.05-283.84-80.25-287.31-78.3z"/>
<path class="st39" d="M-305.28,28.57c1.42,0.89,1.38,2.57,2.08,3.86c0.64,2.89-1.96,2.63-3.38,3.24
	c-11.25,4.79-21.5,10.94-29.54,20.38c-1.85,2.18-2.95,4.77-4.64,7.02c-1.52,2.03-2.96,2.5-4.86,0.65c-1.28-1.12-2.33-2.4-2.86-4.05
	c1.16-1.09,2.73-1.42,3.8-2.9c8.94-12.29,20.5-21.19,34.94-26.15C-308.15,30.07-306.78,29.2-305.28,28.57z"/>
<path class="st40" d="M-357.28-70.31c10.87,11.67,23.75,20.56,38.01,27.57c2.1,1.03,5.13,1.18,5.06,4.63
	c0.05,1.17-0.12,2.28-0.97,3.17c-0.1-1.75-0.62-3.24-2.43-3.94c-16.29-6.35-29.47-17.35-42.6-28.42c-0.15-0.91,0.42-1.46,0.99-2.02
	C-358.58-69.64-357.93-69.98-357.28-70.31z"/>
<path class="st41" d="M-169.41,17.52c-0.03,2.04,0.49,3.79,1.82,5.5c9.81,12.71,20.1,25.08,28.89,38.55c1,1.53,2.26,3,4.5,2.09
	c-0.23,1.27-0.88,2.27-1.95,3c-3.45,0.43-4.51-2.63-5.78-4.58c-7.78-11.98-17.01-22.87-25.58-34.24c-1.6-2.12-3.21-4.29-2.85-7.21
	C-170.45,19.47-170.2,18.41-169.41,17.52z"/>
<path class="st42" d="M-308.61,97.74c-1.37-0.41-2.61-1.04-3.52-2.2c2.93-5.52,5.28-11.32,8.35-16.78
	c4.44-7.91,9.19-15.61,14.71-22.8c1.65-2.15,4.48-2.65,6.91-3.64c0.28,0.17,0.56,0.34,0.84,0.5c1.38,1.79,0.13,2.94-0.88,4.31
	c-8.88,12.02-16.98,24.52-22.71,38.41C-305.63,97.27-306.54,98.4-308.61,97.74z"/>
<path class="st43" d="M-128.36,53.62c-1.39-0.18-2.54-0.83-3.31-1.99c-8.82-13.23-19.05-25.39-28.7-37.99
	c4.4-0.46,6.53,2.74,8.7,5.6c7.2,9.46,14.42,18.91,21.3,28.6c2.26,3.18,3.33,0.9,4.91-0.21C-125.92,49.87-126.94,51.84-128.36,53.62
	z"/>
<path class="st44" d="M-308.25-52.2c-14.26-7.95-27.86-16.77-38.67-29.26c-1.65-1.91-3.26-2.74-5.41-0.85
	c0.98-1.68,1.95-3.35,2.93-5.03c1.81-0.83,3.38-0.94,4.78,0.91c9.44,12.51,21.84,21.39,35.5,28.71c1.09,0.58,1.84,1.37,2.16,2.56
	C-306.92-53.97-307.17-52.91-308.25-52.2z"/>
<path class="st45" d="M-325.28,85.6c-0.7-0.65-1.4-1.3-2.1-1.95c-0.5-2.61,0.42-4.85,1.66-7.1c3.77-6.83,7.99-13.38,12.18-19.96
	c0.76-1.13,1.8-1.88,3.08-2.32c2.04,0.18,4.06-1.26,6.11-0.05c1.07,1.37,0.17,2.42-0.53,3.57c-5.24,8.64-10.61,17.21-14.95,26.36
	C-321.05,86.72-322.78,87.7-325.28,85.6z"/>
<path class="st46" d="M-180.41,39.49c0.73-1.55,1.56-3.03,2.94-4.12c0.72,0.31,1.13,0.89,1.4,1.59c0.3,5.5,4.71,8.72,7.62,12.5
	c6.05,7.88,11.73,16.01,17.53,24.06c0.97,1.34,1.74,2.93,3.84,2.56c0.67-0.15,1.33-0.3,2.02-0.17c0.45,0.14,0.79,0.42,1.03,0.84
	c-1.03,2.04-2.62,3.55-4.48,4.81c-4.04,1.93-5.53-1.74-6.92-3.84c-4.84-7.31-10.16-14.26-15.35-21.31
	c-2.93-3.98-6.2-7.71-8.84-11.92C-180.63,42.85-181.54,41.39-180.41,39.49z"/>
<path class="st47" d="M-310.47-125.34c5.63,5.76,11.36,11.43,16.86,17.32c4.99,5.35,10.99,9.47,16.52,14.16
	c1.47,1.25,3.12,2.49,5.26,2.57c1.85,0.07,3.16,0.87,3.52,2.82c-1.57,0.92-2.86,2.53-5,2.12c-4.67-1.9-8.16-5.53-11.98-8.59
	c-8.64-6.92-16.36-14.87-23.99-22.87c-1.57-1.64-3.77-3.41-3-6.35C-311.68-124.55-311.07-124.95-310.47-125.34z"/>
<path class="st48" d="M-189.35,48.65c0.68-0.6,1.36-1.19,2.04-1.79c0.47,0.1,0.89,0.3,1.28,0.58c6.66,9.05,14.21,17.45,20.12,27.05
	c3.02,4.91,6.74,9.33,9.81,14.2c-0.78,0.63-1.56,1.25-2.34,1.88c-2.33,1.65-3.83,0.04-4.95-1.57c-5.34-7.7-10.53-15.49-16.23-22.95
	c-2.7-3.53-5.35-7.08-8.28-10.42C-189.71,53.57-191.41,51.51-189.35,48.65z"/>
<path class="st49" d="M-172.26,99.63c-0.93,0.69-1.85,1.39-2.78,2.08c-2.22,0.93-3.21-0.41-4.36-2.05
	c-6.41-9.18-12.42-18.65-19.37-27.46c-2.25-2.85-4.67-5.55-6.52-8.71c-1.02-1.74-1.69-3.23-0.08-4.9c0.55-0.6,1.19-0.97,2.04-0.83
	c5.21,2.76,7.72,7.98,10.9,12.46C-185.54,79.91-178.49,89.5-172.26,99.63z"/>
<path class="st50" d="M-316.3-121.18c0.65-0.41,1.29-0.83,1.94-1.24c3.16,0.08,3.56,3.18,5.22,4.87
	c9.7,9.81,19.54,19.45,30.61,27.76c1.53,1.15,4.28,1.82,3.36,4.83c-1.04,0.56-2.09,1.13-3.13,1.69c-5.19-1.77-8.56-6.1-12.64-9.34
	c-8.93-7.1-17.66-14.51-24.78-23.56c-0.72-0.92-1.57-1.74-1.5-3.03C-317.06-119.93-316.77-120.6-316.3-121.18z"/>
<path class="st51" d="M-273.2,57.55c-11.7,13.37-20.5,28.49-27.11,44.93c-1.27-0.15-2.26-0.78-3.08-1.73
	c-1.78-5.06,2.26-8.41,4.04-12.2c4.27-9.08,10.18-17.28,15.77-25.62c1.88-2.8,3.89-5.73,7.23-7.18
	C-275.08,55.97-274.02,56.56-273.2,57.55z"/>
<path class="st52" d="M-252.34,64.68c-10.91,12.14-20.36,25.26-27.13,40.2c-0.82,1.81-1.91,3.52-1.84,5.61c-1-0.32-2-0.63-3-0.95
	c-1.65-1.6-1.06-3.31-0.24-5.03c6.64-14.02,15.14-26.8,25.23-38.56c1.54-1.8,3.03-2.4,5.14-1.39
	C-253.57,64.59-252.96,64.64-252.34,64.68z"/>
<path class="st53" d="M-165.15,95.66c-0.81,1.01-1.84,1.68-3.11,1.98c-2.46,0.8-3.88-0.91-4.84-2.52
	c-7.36-12.32-16.4-23.4-25.12-34.73c-1.05-1.36-2.87-2.61-1.13-4.67c1.57-1.21,2.89-2.78,4.93-3.27c0.38,0.31,0.61,0.71,0.73,1.18
	c0.03,1.26-0.45,2.45,0.61,3.72C-182.87,69.47-174.04,82.59-165.15,95.66z"/>
<path class="st54" d="M-308.61,97.74c3-1.5,2.49-4.86,3.78-7.26c6.55-12.22,13.36-24.26,22.14-35.07c0.6-0.74,0.92-1.72,1.37-2.59
	c0.99,0.62,1.98,1.23,2.97,1.85c0.51,1.05,0.15,2-0.5,2.78c-10.3,12.32-17.72,26.4-24.81,40.67c-0.38,0.77-0.93,1.36-1.73,1.71
	C-306.46,99.13-307.53,98.44-308.61,97.74z"/>
<path class="st55" d="M-180.41,39.49c2.92,6.53,7.81,11.72,11.94,17.42c4.64,6.39,9.22,12.82,13.82,19.24
	c1.63,2.28,3.12,4.71,6.14,5.4c-0.33,0.34-0.66,0.67-0.98,1.01c-2.17,1.99-3.98,1.48-6-0.48c-4.33-4.21-7.01-9.59-10.62-14.31
	c-5.12-6.69-10.04-13.53-15.21-20.18c-1.99-2.56-2.18-4.62-0.04-6.96C-181.04,40.26-180.73,39.88-180.41,39.49z"/>
<path class="st56" d="M-352.33,53.63c1.39,0.65,2.45,2.07,4.16-0.07c10.42-13.03,23.6-22.12,39.59-27.07
	c0.46-0.14,0.84-0.52,1.25-0.79c1.03,0.03,1.08,0.82,1.22,1.55c0.4,3.51-2.88,3.45-4.65,4.1c-13.76,5.07-25.05,13.33-33.77,25.11
	c-1.18,1.6-2.16,3.55-4.69,2.13C-350.58,57.14-351.78,55.59-352.33,53.63z"/>
<path class="st57" d="M-310.29,55.63c-0.67,0.66-1.34,1.32-2.02,1.98c-4.17,2.89-7.12,6.78-9.27,11.31
	c-1.55,3.28-3.48,6.36-5.2,9.55c-0.81,1.51-1.67,2.93-3.78,2.27c-1.43-1.25-3.61-1.73-4.06-3.98c0.17-0.44,0.37-0.86,0.59-1.28
	c3.56-4.91,5.28-11.08,10.24-15.04c5.32-3.92,9.97-8.7,15.77-11.98c4.62-2.61,9.43-4.68,14.81-5.05c0.34,0.31,0.68,0.62,1.02,0.94
	c1.39,3.07-1.13,3.64-2.99,4.46C-300.24,51.04-305.28,53.3-310.29,55.63z"/>
<path class="st58" d="M-297.61,103.74c1.24-0.63,2.08-1.63,2.63-2.89c6.51-15.05,15.48-28.57,25.69-41.33
	c1.95-0.02,3.61,0.76,5.16,1.84c-11.32,12.3-20.49,25.99-26.8,41.52c-0.51,1.26-1.08,2.41-2.45,2.93
	C-295,105.55-296.41,104.86-297.61,103.74z"/>
<path class="st59" d="M-329.64-110.41c2.35,0.26,3.71,2.01,5.23,3.51c9.71,9.65,19.12,19.61,29.97,28.04
	c1.68,1.31,3.29,2.85,3.09,5.34c-0.64,1.18-1.53,2.1-2.78,2.64c-0.44-0.22-0.77-0.54-1.01-0.96c-0.47-3.91-4.2-4.97-6.53-7.11
	c-8.19-7.49-16.14-15.21-23.94-23.09c-2.09-2.11-4.38-4.01-6.4-6.19C-331.5-109.25-330.7-109.98-329.64-110.41z"/>
<path class="st60" d="M-293.31,53.61c-8.45,10.51-14.67,22.37-20.85,34.26c-0.85,1.64-1.32,3.44-3.45,3.86
	c-1.17-0.38-2.07-1.09-2.72-2.13c5.15-11.75,11.66-22.74,18.77-33.4c1.39-2.09,3.1-3.38,5.51-3.86
	C-294.93,52.32-293.96,52.63-293.31,53.61z"/>
<path class="st61" d="M-260.22,62.57c1.43-0.03,2.82,0.09,4.02,0.99c-7.31,6.36-12.21,14.6-17.58,22.48
	c-4.93,7.23-8.35,15.29-12.64,22.87c-0.67-0.34-1.34-0.67-2.01-1.01c-2.07-2.32-1.01-4.55,0.05-6.9
	c4.54-10.02,10.5-19.17,17.06-27.95c2.18-2.91,3.87-6.17,6.43-8.82C-263.56,62.83-262.31,61.59-260.22,62.57z"/>
<path class="st62" d="M-165.15,95.66c-5.75-1.66-6.69-7.52-9.62-11.5c-6.48-8.8-12.84-17.69-19.74-26.17
	c-1.35-1.66-2.22-3,0.16-4.38c4.32,0.89,5.97,4.7,8.26,7.72c7.98,10.52,15.83,21.15,22.89,32.33
	C-163.85,94.33-164.5,95-165.15,95.66z"/>
<path class="st63" d="M-181.08-82.2c-2.33-0.6-1.41-2.34-1.14-3.65c1.43-6.92,12.12-17.07,19.09-18.25c1.06-0.18,1.97,0.1,2.76,0.81
	C-166.61-95.61-173.88-88.94-181.08-82.2z"/>
<path class="st64" d="M-306.96-55.16c-14.58-7.63-28.3-16.36-38.38-29.79c-1.04-1.39-2.18-2.48-4.06-2.39
	c0.31-0.34,0.63-0.67,0.94-1.01c1.81-1.13,3.29-1.75,4.96,0.6c8.82,12.36,20.68,21.14,33.89,28.27c1.62,0.88,3.36,1.57,3.29,3.86
	C-306.39-55.27-306.61-55.12-306.96-55.16z"/>
<path class="st65" d="M-177.36,37.63c-0.04-0.75-0.07-1.5-0.11-2.25c0.71-1.21,1.43-2.41,2.14-3.62
	c9.78,11.5,17.75,24.38,27.45,35.95c1.95,2.33,3.7,5.03,4.78,8.01c-0.31,0.34-0.62,0.68-0.93,1.02c-0.45-0.05-0.89-0.09-1.34-0.14
	c-1.55,0.64-2.8-0.16-4.07-0.85c-8.77-12.31-17.66-24.53-27.09-36.35C-176.96,38.87-177.27,38.3-177.36,37.63z"/>
<path class="st66" d="M-275.17-84.97c-6.02-5.09-12.17-10.05-18.04-15.32c-7.61-6.83-15.37-13.54-21.15-22.13
	c0.36-0.98,0.81-1.85,2.08-1.73c9.78,12.66,21.72,23.08,34.16,32.99c1.77,1.41,4.03,2.39,4.81,4.81
	C-273.94-85.89-274.55-85.43-275.17-84.97z"/>
<path class="st67" d="M-189.35,48.65c-0.03,1.9,0.54,3.65,1.77,5.05c9.23,10.56,17.23,22.02,24.84,33.78
	c0.99,1.53,2.31,2.84,4.3,3.09c-0.59,1.09-1.45,1.84-2.69,2.11c-2.3,1.02-3.24-0.56-4.3-2.14c-8.01-11.93-16.32-23.64-25.41-34.78
	c-1.39-1.7-2.89-3.38-0.62-5.49C-190.76,49.73-190.05,49.19-189.35,48.65z"/>
<path class="st68" d="M-312.01,17.53c-5.95,0.3-11.18,3.06-16.34,5.47c-9.15,4.27-17.62,9.74-24.47,17.41
	c-1.61,1.81-3.49,4.4-5.47,0.21c10.6-9.92,22.52-17.77,36.1-23.06c3.13-1.22,6.92-1.34,8.87-4.78
	C-311.55,14-312.04,15.84-312.01,17.53z"/>
<path class="st69" d="M-205.36,58.59c0.8,5.22,4.77,8.48,7.62,12.45c6.79,9.46,13.5,18.98,20.17,28.53c0.7,1,1.29,1.88,2.53,2.13
	c-0.64,0.34-1.29,0.67-1.93,1.01c-2.69,0.9-4.47-0.3-5.8-2.51c-7.15-11.92-15.33-23.11-24.2-33.81c-1.32-1.6-3.55-3.27-2.49-6.04
	C-208.37,59.13-206.88,58.82-205.36,58.59z"/>
<path class="st70" d="M-293.38,105.81c3.35-13.51,11.64-24.3,19.66-35.19c2.62-3.56,3.97-8.71,9.59-9.26c0,0-0.01,0.01-0.01,0.01
	c1.05,1.67-0.03,2.86-0.99,3.99c-8.22,9.65-14.52,20.58-20.9,31.44c-1.88,3.21-1.93,7.42-5.29,9.87
	C-292.01,106.38-292.7,106.09-293.38,105.81z"/>
<path class="st71" d="M-349.22,58.59c2.18-0.52,3.09-2.48,4.23-4.01c8.38-11.25,19.59-18.64,32.38-23.84
	c2.31-0.94,4.6-1.82,6.49-3.48c0.28,0.44,0.55,0.88,0.83,1.31c-0.31,2.78-2.67,3.04-4.64,3.78c-13.96,5.24-25.61,13.5-33.86,26.11
	c-1.3,1.99-2.59,2.87-4.69,1.21C-348.72,59.31-348.97,58.95-349.22,58.59z"/>
<path class="st72" d="M-301.2-63.08c-0.39,1.15-0.77,2.3-2.1,2.71c-2.97-3.57-7.57-4.57-11.25-7.06
	c-9.39-6.37-17.87-13.65-25.04-22.44c-1.36-1.67-3.45-2.59-4.67-4.41c0.54-0.72,1.08-1.43,1.61-2.15c0.44-0.22,0.89-0.43,1.34-0.63
	c2.74-0.07,4,2.17,5.54,3.77c7.65,8,15.57,15.64,24.78,21.9c2.35,1.6,4.85,2.81,7.28,4.21C-302.12-66.28-300.31-65.5-301.2-63.08z"
	/>
<path class="st73" d="M-282.16,52.32c-7.57,4.58-11.54,12.22-15.86,19.37c-4.16,6.89-8.69,13.67-11.16,21.48
	c-0.43,1.35-1.5,2.17-2.95,2.37c-0.87-0.6-1.75-1.2-2.62-1.8c3.92-0.61,4.56-4.29,5.61-6.91c4.58-11.42,11.85-21.18,18.44-31.38
	c1.75-2.71,5.23-1.78,7.33-3.69C-282.96,51.95-282.56,52.13-282.16,52.32z"/>
<path class="st74" d="M-332.02-108.23c2.06-0.18,3.36,1.09,4.69,2.39c10.74,10.51,20.79,21.77,33.1,30.57
	c1.54,1.1,1.52,2.01-0.08,2.96c-3.05,1.01-5.27-1.01-6.95-2.71c-8.7-8.81-18.47-16.49-26.9-25.57c-1.6-1.72-3.32-3.22-5.69-3.77
	c-0.38-0.29-0.66-0.67-0.86-1.1C-334.11-106.67-333.23-107.6-332.02-108.23z"/>
<path class="st75" d="M-183.26,105.79c-8.16-13.93-17.48-27.03-27.85-39.39c-1.21-1.45-2.36-2.79-2.24-4.8
	c0.88-0.69,1.83-1.12,2.99-0.91c5.44,8.47,12.19,15.95,17.99,24.16c3.05,4.32,5.95,8.71,8.73,13.18c1.32,2.12,2.74,4.08,4.62,5.71
	C-180.43,104.43-181.84,105.11-183.26,105.79z"/>
<path class="st76" d="M-199.35,55.72c2.81,6.09,7.8,10.57,11.73,15.83c5.33,7.14,10.54,14.33,15.21,21.92
	c1.06,1.73,2.39,3.16,4.15,4.17c-0.43,0.3-0.85,0.59-1.28,0.89c-3.76,1.37-5.04-1.81-6.46-3.92c-6.64-9.92-13.65-19.58-20.69-29.21
	c-1.96-2.69-5.45-4.65-4.68-8.82C-200.83,55.98-200.21,55.57-199.35,55.72z"/>
<path class="st77" d="M-301.2-63.08c-4.29-4.43-10.04-6.79-15.03-10.18c-7.52-5.11-13.01-12.09-19.57-18.05
	c-1.83-1.66-3.66-3.32-5.49-4.99c0.92-4.07,2.94-2.41,4.68-0.78c4.1,3.85,7.98,7.93,11.94,11.92c1.66,1.67,3.37,3.19,5.81,3.55
	c1.83,1.57,4.05,2.6,5.79,4.29c2.52,3.44,6.1,5.45,9.78,7.37c1.9,0.99,4.63,1.49,4.02,4.71C-299.59-64.22-300.27-63.54-301.2-63.08z
	"/>
<path class="st78" d="M-191.46,50.27c-1.03,2.82,1.3,4.37,2.63,6c8.95,11.03,17.1,22.63,25.02,34.4c0.68,1.02,1.46,1.77,2.68,2.01
	c-0.44,0.86-1.25,0.93-2.07,0.97c-2.78-0.3-3.6-2.75-4.84-4.61c-8.2-12.24-16.71-24.23-26.31-35.43c-0.02-0.39-0.04-0.77-0.06-1.16
	C-193.43,51.73-192.44,51-191.46,50.27z"/>
<path class="st79" d="M-344.26-94.29c5.04,1.97,7.93,6.48,11.45,10.12c7.48,7.73,16.01,13.97,25.3,19.24
	c1.92,1.09,3.85,2.07,4.2,4.56c0,0-0.24,0.29-0.24,0.29l-0.37-0.03c-13.79-6.73-25.9-15.59-35.39-27.79
	c-1.66-2.13-3.51-3.96-6.29-4.51C-345.43-93.23-345.11-93.95-344.26-94.29z"/>
<path class="st80" d="M-316.3-119.28c9.26,12.27,21.45,21.42,33.17,31.06c1.8,1.48,3.59,2.93,4.82,4.94
	c-0.76,1.03-1.78,1.65-3.02,1.93c-12.72-10.17-25.34-20.46-35.73-33.15c-1.02-1.25-2.52-2.29-1.75-4.27
	C-318.12-119.68-317.34-120.13-316.3-119.28z"/>
<path class="st81" d="M-152.71,85.59c-0.27,1.45-1.91,1.13-2.61,2.02c-4.64-1.06-5.69-5.63-7.91-8.74
	c-5.44-7.63-10.87-15.27-16.66-22.63c-2.24-2.85-3.85-6.21-6.68-8.59c0.14-1.97,1.25-3.03,3.15-3.35
	C-172.29,57.39-162.71,71.65-152.71,85.59z"/>
<path class="st82" d="M-287.31-78.3c1.61-1,2.13-2.07,0.3-3.4c-12.56-9.15-22.72-20.86-33.8-31.6c-0.97-0.94-1.96-1.81-3.38-1.95
	c0.85-0.73,1.7-1.46,2.54-2.2c3.87-0.25,5.33,3.06,7.18,5.33c3.6,4.39,7.76,8.11,11.89,11.95c6.07,5.65,11.81,11.62,18.65,16.39
	c1.15,0.8,1.81,2.01,0.61,3.39c-1.39,0.93-1.79,3.16-4,2.99C-287.31-77.69-287.31-77.99-287.31-78.3z"/>
<path class="st83" d="M-143.1,75.72c-4.83-3.02-6.94-8.35-10.37-12.53c-7.02-8.58-12.66-18.23-20.24-26.4
	c-1.38-1.48-1.73-3.15-1.62-5.04c0.27-0.49,0.54-0.98,0.8-1.47c5.32,4.09,9.06,9.64,13.03,14.87c7,9.25,13.63,18.8,20.1,28.44
	C-141.63,74.58-142.21,75.27-143.1,75.72z"/>
<path class="st84" d="M-305.38,99.83c7.12-16.19,15.7-31.5,27.04-45.16c0.67,0.36,1.33,0.72,2,1.08
	c-5.64,7.56-11.14,15.23-15.92,23.36c-4.1,6.99-8.16,14.04-11.12,21.63C-304.17,100.71-304.96,100.66-305.38,99.83z"/>
<path class="st85" d="M-301.17,35.38c0.33,0.02,0.62,0.15,0.86,0.39c1.32,2.55-0.38,3.32-2.26,4.44
	c-4.92,2.95-10.75,4.25-14.99,8.39c-8.65,4.03-13.39,11.48-17.11,19.75c-0.98,2.18-1.33,4.64-4.63,3.26
	c-1.4-1.04-2.57-2.26-3.25-3.9c0.2-0.43,0.49-0.79,0.87-1.08c0.84-0.52,1.93-0.8,2.36-1.75c4.64-10.19,12.92-17.03,21.55-23.56
	C-312.65,38.17-307.18,36.02-301.17,35.38z"/>
<path class="st86" d="M-315.1,6.5c-11.51,3.8-22.64,8.5-33.07,14.67c-3.97,2.35-7.51,5.42-11.2,8.22c-1.19,0.9-2.21,2.13-3.93,1.25
	c-0.83-0.83-1.09-1.85-1.02-2.99c1.72,0.97,3.01,0.33,4.46-0.82c12.99-10.32,27.79-17.13,43.48-22.18
	C-315.96,5.26-315.53,5.88-315.1,6.5z"/>
<path class="st87" d="M-286.41,108.9c4.32-13.67,12.34-25.26,20.88-36.49c2.58-3.38,4.09-8.17,9.34-8.86c0.89-0.11,1.61,0.13,2.01,1
	c-5.56,1.2-7.44,6.41-10.32,10.16c-6.97,9.07-13.15,18.75-17.98,29.2c-0.84,1.81-1.9,3.53-1.83,5.63
	C-285.11,109.63-285.88,109.67-286.41,108.9z"/>
<path class="st88" d="M-179.02,103.74c-2.86-0.35-4.18-2.58-5.35-4.74c-4.74-8.73-11.32-16.17-16.98-24.24
	c-2.62-3.74-5.85-7.07-8.35-10.95c-0.68-1.05-1.25-1.91-0.66-3.13c0.28-0.17,0.58-0.28,0.9-0.33c9.81,13.03,20.34,25.53,28.48,39.76
	c0.87,1.53,2.28,2.35,4.02,2.6C-177.65,103.06-178.33,103.4-179.02,103.74z"/>
<path class="st89" d="M-283.31-80.38c-1.95-4.61-6.99-5.86-10.08-9.27c-6.76-7.47-15.19-13.29-21.4-21.34
	c-1.92-2.49-4.08-4.83-6.85-6.46c0.41-0.29,0.83-0.59,1.24-0.88c0.71-0.55,1.42-0.57,2.11,0.04c9.16,11.89,20.46,21.57,32.02,30.98
	c2.05,1.67,4.38,3.07,4.96,5.94C-281.8-80.64-282.37-80.12-283.31-80.38z"/>
<path class="st90" d="M-291.33,106.66c6.33-15.22,14.67-29.23,25.3-41.84c0.88-1.04,1.6-2.11,1.89-3.45
	c1.41,0.08,2.78,0.27,3.93,1.2c-3.13,0.4-4.23,3.27-5.64,5.28c-7.74,10.99-15.91,21.75-21.25,34.25c-0.81,1.89-1.27,3.77-1.32,5.79
	C-289.5,107.74-290.56,107.55-291.33,106.66z"/>
<path class="st91" d="M-333.29-105.28c2.12-1.49,2.97,0.58,4.04,1.58c9.6,9.09,19.09,18.29,28.74,27.32
	c1.78,1.67,4.12,2.73,6.2,4.07c0.06,0.48,0.11,0.95,0.17,1.43c-0.74,0.79-1.47,1.58-2.21,2.37c-1.14-0.25-2.31-0.45-3.09-1.46
	c-3.27-3.46-6.91-6.54-10.34-9.83c-7.7-7.38-15.58-14.58-22.86-22.39C-333.44-103.05-334.07-104.04-333.29-105.28z"/>
<path class="st92" d="M-330.56,80.74c4.31-5.48,5.92-12.48,10.16-18.02c2.09-2.73,4.51-4.8,8.08-5.12
	c-5.02,8.68-10.05,17.36-15.07,26.04C-328.76,83.02-329.79,82.03-330.56,80.74z"/>
<path class="st93" d="M-338.48-101.36c0.61-0.69,1.21-1.38,1.82-2.07c1.79-0.9,3.09-0.21,4.38,1.12
	c9.2,9.48,18.78,18.57,28.48,27.54c1.03,0.95,2.5,1.89,1.56,3.74c-3.19,1.55-5.04-1.2-7.39-2.31
	C-319.09-82.84-329.81-91.04-338.48-101.36z"/>
<path class="st94" d="M-186.35,47.62c1.81,0.23,2.86,1.42,3.88,2.82c9.02,12.41,18.09,24.79,27.15,37.18
	c0.14,0.64-0.23,0.92-0.77,1.08c-4.52-1.27-6.04-5.69-8.13-8.9c-6.4-9.85-13.51-19.14-20.75-28.35c-0.91-1.16-1.53-2.54-2.28-3.81
	C-186.96,47.12-186.66,47.14-186.35,47.62z"/>
<path class="st95" d="M-302.31-71.3c-3.6-4.29-7.62-8.13-12.03-11.59c-6.36-5-11.14-11.61-17.09-17.05
	c-1.57-1.44-2.89-3.22-5.24-3.48c0.65-0.68,1.3-1.36,1.95-2.03c0.47,0.06,0.95,0.12,1.42,0.17c5.01,5.79,10.8,10.79,16.11,16.26
	c6.18,6.36,13.6,11.47,18.88,18.72c-0.32,0.45-0.75,0.77-1.28,0.94C-300.98-69.33-302.42-69.23-302.31-71.3z"/>
<path class="st96" d="M-296.3,53.62c-3.08,1.8-5.05,4.53-6.83,7.56c-5.01,8.51-10.3,16.85-14.4,25.86
	c-0.56,1.24-1.32,2.29-2.79,2.56c-1.05-0.28-1.81-0.91-2.33-1.85c5.32-8.54,9.34-17.8,14.87-26.23c1.45-2.21,3.1-4.3,4.32-6.63
	c1.18-2.26,2.96-2.96,5.34-2.6C-297.33,52.47-296.69,52.88-296.3,53.62z"/>
<path class="st97" d="M-201.37,56.58c2.2,5.5,6.54,9.53,9.87,14.25c5.24,7.44,10.55,14.83,15.82,22.25
	c1.63,2.29,3.11,4.75,6.15,5.45c-0.64,1.03-1.67,1.1-2.72,1.1c-1.2-0.18-2.17-0.71-2.89-1.73c-9.39-13.38-18.78-26.76-28.17-40.14
	C-202.67,57.37-202.02,56.97-201.37,56.58z"/>
<path class="st98" d="M-152.71,85.59c-1.68-0.27-2.37-1.64-3.23-2.86c-6.43-9.01-12.93-17.96-19.31-27
	c-2.64-3.75-6.92-6.3-8.1-11.11c-0.63-0.62-0.54-1.21,0.06-1.78c0.65-0.73,1.3-1.46,1.95-2.19c-0.78,2.19-0.37,3.91,1.15,5.89
	c7.98,10.38,15.95,20.76,23.3,31.61c1.62,2.39,3.29,5.75,7.41,4.42C-150.57,83.57-151.64,84.58-152.71,85.59z"/>
<path class="st99" d="M-341.29,67.61c-0.42,0.03-0.84,0.07-1.26,0.1c-1.3-1.12-2.46-2.34-3.06-3.99c2.03,0.73,3.02-0.46,3.91-2.02
	c8.42-14.74,21.94-22.79,37.32-28.4c0.44-0.16,0.79-0.58,1.19-0.88c0.29,0.18,0.58,0.36,0.87,0.54c0.86,3.92-2.81,3.7-4.57,4.2
	c-6.99,1.99-12.68,5.99-18.16,10.47c-0.36,0.29-0.72,0.58-1.09,0.85c-3.7,3.01-7.44,6-9.31,10.63
	C-338.03,61.5-338.11,65.62-341.29,67.61z"/>
<path class="st100" d="M-172.53,26.26c4.77,6.31,9.52,12.64,14.31,18.93c0.81,1.06,1.71,2.03,1.85,3.43c1.76,2.27,3.66,4.43,5,7
	c1,1.33,2,2.66,3,4c0.55,0.61,0.65,1.27,0.26,2c-2.21,1.08-2.93-0.82-3.84-2.05c-6.87-9.24-13.53-18.63-21.17-27.27
	c-0.69-0.78-0.59-1.87-1.21-2.66C-173.73,28.51-173.13,27.38-172.53,26.26z"/>
<path class="st101" d="M-174.33,29.63c8,8.89,14.92,18.62,22.06,28.19c1.11,1.48,2.27,2.86,3.89,3.79c2.06,1.15,3.36,3.08,4.39,5.01
	c1.15,2.16,2.65,3.51,4.96,4.08c-0.44,1.25-1.23,2.21-2.37,2.9c-4.03-0.83-4.91-4.68-6.88-7.38c-7.87-10.83-15.52-21.82-24.15-32.07
	c-0.97-1.16-1.87-2.32-2.1-3.87C-174.64,30.01-174.57,29.8-174.33,29.63z"/>
<path class="st102" d="M-333.3,76.59c-0.44,0.06-0.88,0.11-1.32,0.17c-0.31-0.34-0.63-0.68-0.94-1.02
	c-1.11-6.45,2.31-11.53,5.57-16.34c3.01-4.45,6.52-8.76,11.54-11.33c4.78-3.31,9.98-5.83,15.36-7.98c1.63-0.65,3.32-1.72,5.21-0.65
	c0.23-0.16,0.43-0.13,0.59,0.1c0.81,2.79-1.37,3.28-3.15,3.96c-3.35,1.27-6.68,2.55-9.57,4.73c-0.37,0.3-0.77,0.54-1.21,0.73
	c-8.04,3.44-13.09,9.85-17.11,17.28C-329.82,69.78-332.08,72.93-333.3,76.59z"/>
<path class="st103" d="M-298.31,53.62c-2.74-0.15-4.12,1.61-5.44,3.66c-5.4,8.35-10.38,16.93-14.82,25.83
	c-0.94,1.89-1.53,4.15-4.09,4.65c-1.1-0.45-2.04-1.08-2.62-2.16c2.98,1.01,3.65-1.28,4.59-3.21c4.74-9.68,10.07-19.02,16.38-27.78
	c1.05-2.91,2.83-4.13,5.83-2.5C-298.03,52.56-297.97,53.07-298.31,53.62z"/>
<path class="st104" d="M-318.3,48.62c-5.32,4.46-9.51,9.81-13.24,15.67c-2.28,3.59-1.23,8.17-4.03,11.46
	c-1.66-1-2.83-2.45-3.73-4.14c4.06-2.72,4.52-7.71,7.14-11.36c3.75-5.21,7.41-10.43,13.86-12.63c0.25,0.22,0.34,0.44,0.25,0.67
	C-318.13,48.51-318.21,48.62-318.3,48.62z"/>
<path class="st105" d="M-338.48-101.36c0.76,0.29,1.76,0.36,2.26,0.9c8.54,9.17,18.84,16.52,26.92,26.16c-2.56,1.57-3.26-1.52-5-2
	c-1.38-1.69-3.97-1.87-5-4c-7.49-5.89-14.2-12.56-20.11-20.04C-339.1-100.68-338.79-101.02-338.48-101.36z"/>
<path class="st106" d="M-293.21,43.41c-0.97,1.24-2.31,1.79-3.79,2.16c-8.44,2.09-15.07,7.26-21.49,12.75
	c-1.49,1.27-2.61,3.05-4.8,3.29c-1.12-2.48,1.04-3.55,2.2-5.02c3.78-4.8,9.51-7.1,14.06-10.91c3.26-2.52,7.82-2.4,10.85-5.37
	C-295.19,41.35-294.2,42.38-293.21,43.41z"/>
<path class="st107" d="M-298.31,52.62c-2.32-0.29-4.21,0.68-6,1.99c-2,0.34-3.99,0.68-5.99,1.02c3.49-4.38,8.88-5.55,13.51-7.98
	c1.7-0.89,4.04-0.82,4.59-3.29c1.27,1.17,2.53,2.34,3.8,3.51C-290.12,52.73-294.76,51.54-298.31,52.62z"/>
<path class="st108" d="M-339.41-100.34c7.18,6.2,13.82,12.95,20.11,20.04c-2.46,0.19-3.94-1.42-5.47-2.96
	c-4.21-4.24-8.43-8.46-12.68-12.66c-1.13-1.12-2.32-2.87-3.84-0.37c-0.45-0.05-0.91-0.1-1.36-0.14
	C-341.91-98.02-340.82-99.31-339.41-100.34z"/>
<path class="st109" d="M-318.3,48.62c0-0.33,0-0.67,0-1c3.67-4.93,9.87-5.57,14.67-8.6c1.4-0.89,3.08-1.27,3.32-3.26
	c1.62,0.7,2.36,1.97,2.43,3.69C-305.15,41.49-311.58,45.37-318.3,48.62z"/>
<path class="st110" d="M-326.29,47.62c5.07-6.41,12.69-8.54,19.69-11.71c1.62-0.73,3.59-0.89,4.28-2.95
	c1.07,0.48,1.23,1.39,1.15,2.42c-4.76,3.78-11.24,3.74-16.13,7.25C-320.47,43.98-322.15,48.01-326.29,47.62z"/>
<path class="st111" d="M-314.3-76.3c1.67,0.67,3.33,1.33,5,2c2.33,1,4.66,2,6.99,3c0.82,0.87,1.89,0.99,3,1
	c0.69,0.88,3.4,0.26,1.99,2.69c-0.65,0.79-1.3,1.59-1.95,2.38c-3.03-3.22-7.39-4.35-10.84-6.92
	C-311.73-73.35-313.27-74.54-314.3-76.3z"/>
<path class="st112" d="M-298.31,52.62c2.74-2.77,6.73-2.91,9.91-4.75c1.33,0.27,2.23,1.17,3.07,2.14c-1.82,3.06-5.5,2.02-7.99,3.61
	c-1,0-1.99,0.01-2.99,0.01c-0.67,0-1.33,0-2-0.01C-298.31,53.28-298.31,52.95-298.31,52.62z"/>
<path class="st113" d="M-139.03,70.7c-1.84,0.7-3.55,0.72-4.7-1.17c-1.59-2.61-3.1-5.28-4.64-7.92c0-0.67,0-1.33,0-2
	c2.75,1.65,4.01,4.59,5.92,6.96c1.15,1.43,2.18,2.82,4.14,3.06C-138.55,69.99-138.79,70.34-139.03,70.7z"/>
<path class="st114" d="M-296.18,40.32c-1.95,4.38-7.37,3.21-10.12,6.3c-1.6,0.65-3,2.3-5,1c2.33-2.99,5.88-3.84,9.14-5.2
	c1.76-0.73,3.87-0.86,4.87-2.87C-296.92,39.81-296.55,40.06-296.18,40.32z"/>
<path class="st115" d="M-370.24-11.33c-0.04,3.45-0.09,6.9-0.13,10.35c-1.55-8.92-1.52-17.84,0-26.76c0.07,1.48,0.14,2.96,0.21,4.44
	c0.7,1.34,1.54,2.64,1.42,4.26C-368.69-16.36-367.16-13.39-370.24-11.33z"/>
<path class="st116" d="M-183.3,42.84c-0.02,0.59-0.04,1.19-0.06,1.78c-1.3,0.7-2.3,1.69-2.99,3c-0.3,0-0.61,0.01-0.91,0.01
	c-0.03-0.25-0.05-0.51-0.05-0.77C-185.97,45.52-184.64,44.18-183.3,42.84z"/>
<path class="st86" d="M-366.23,21.64c1.75,1.66,2.06,3.78,1.91,6.05C-365.51,25.85-366.18,23.84-366.23,21.64z"/>
<path class="st10" d="M-369.39-35.76c-0.03,2.18,0.65,4.45-0.87,6.42C-370.37-31.53-370.46-33.72-369.39-35.76z"/>
<path class="st80" d="M-318.3-118.28c-0.7-0.01-1.41-0.03-2.11-0.04c1.13-1.29,2.21-2.66,4.11-2.86c0,0.63,0,1.27,0,1.9
	C-316.97-118.94-317.63-118.61-318.3-118.28z"/>
<path class="st93" d="M-297.32-67.61c-0.66-0.9-1.33-1.8-1.99-2.69c0.34,0,0.67,0,1.01-0.01c1.05,0.16,1.74,0.73,1.95,1.8
	C-296.67-68.21-297-67.91-297.32-67.61z"/>
<path class="st117" d="M-370.24-11.33c0.01-2.67,0.02-5.34,0.02-8.01c0.82-0.73,1.78-0.97,2.73-0.44c4.01,2.26,8.09,4.39,11.94,6.91
	c1.66,1.08,2.69,2.5,1.27,4.52C-359.72-8.7-365.22-8.72-370.24-11.33z"/>
<path class="st7" d="M-354.28-8.35c-0.39-2.97-2.86-3.86-5.03-5.05c-3.63-1.98-7.27-3.96-10.9-5.94c0.02-1.32,0.03-2.64,0.05-3.96
	c6.88,3.94,13.77,7.87,20.63,11.85c1.18,0.69,3.34,1,2.6,2.96c-0.67,1.77-2.52,0.99-3.94,0.75C-352.01-7.93-353.15-8.14-354.28-8.35
	z"/>
<path class="st113" d="M-151.37,55.61c-2.12-2.01-4.14-4.09-5-7C-153.74,50.26-151.91,52.47-151.37,55.61z"/>
<path class="st118" d="M-177.36,37.63c7.43,6.7,12.52,15.29,18.64,23.05c3.58,4.54,6.91,9.28,10.35,13.93c0.62,1.03,1.53,1.87,2,3
	c-1.55,2.49-2.91,0.89-3.8-0.42c-8.53-12.66-17.9-24.69-27.06-36.89C-177.87,39.44-178.22,38.56-177.36,37.63z"/>
<path class="st119" d="M-146.37,77.6c-1.21-0.64-1.88-1.64-2-3c1,0.67,2,1.33,3,2C-145.71,76.94-146.04,77.27-146.37,77.6z"/>
<path class="st120" d="M-311.3,47.62c1.67-0.33,3.33-0.67,5-1c-5.6,5.08-12.71,8.43-16.99,14.99c-4.34,4.32-5.82,10.55-10,14.98
	c-0.28-4.25,2.5-7.38,4.01-10.98C-324.45,58.45-318.91,52-311.3,47.62L-311.3,47.62z"/>
<path class="st121" d="M-326.29,47.62c3.49-0.78,5.39-4.42,9-5c-0.91,0.95-1.69,2.1-2.76,2.81c-8.01,5.23-13.95,12.21-18.1,20.8
	c-0.51,1.06-0.76,4-3.12,1.38c0.92-3.41,2.32-6.56,5-9C-334.04,53.96-330.12,50.83-326.29,47.62z"/>
<path class="st110" d="M-326.29,47.62c-3.33,3.66-6.66,7.33-10,10.99C-335.04,53.06-330.84,50.18-326.29,47.62z"/>
<path class="st114" d="M-311.3,47.62c-6.44,5.55-12.18,11.81-17.99,17.99C-325.5,57.41-320.13,50.78-311.3,47.62z"/>
</svg>
