<svg
    width="40"
    height="40"
    viewBox="0 0 40 40"
    fill="none"
    shape-rendering="auto"
    xmlns="http://www.w3.org/2000/svg">
    <circle
      cx="20"
      cy="20"
      r="20"
      fill="white"/>
    <path
      d="M30.9728 20.2553C30.9728 19.4775 30.9093 18.6997 30.7823 17.9377H20.0042V22.3347H26.179C25.925 23.7475 25.0996 25.0174 23.8932
      25.8111V28.6683H27.5759C29.7347 26.6841 30.9728 23.7475 30.9728 20.2553Z"
      fill="#4285F4"/>
    <path
      d="M20.0039 31.4291C23.0833 31.4291 25.6866 30.4132 27.5756 28.6671L23.8929 25.8099C22.8611 26.5083 21.5436 26.9051 20.0039
      26.9051C17.0196 26.9051 14.4957 24.8892 13.5909 22.1907H9.79712V25.1432C11.7337 28.9846 15.6862 31.4291 20.0039 31.4291Z"
      fill="#34A853"/>
    <path
      d="M13.5916 22.193C13.1153 20.7802 13.1153 19.2405 13.5916 17.8119V14.8752H9.79776C8.99164 16.4641 8.57153 18.2207
      8.57153 20.0024C8.57153 21.7841 8.99164 23.5407 9.79776 25.1296L13.5916 22.193Z"
      fill="#FBBC04"/>
    <path
      d="M20.0039 13.0962C21.6388 13.0645 23.2103 13.6835 24.385 14.8106L27.6391 11.5565C25.5755 9.60401 22.8452 8.54048
      20.0039 8.57222C15.6862 8.57222 11.7337 11.0168 9.79712 14.8741L13.5909 17.8265C14.4957 15.1122 17.0196 13.0962 20.0039 13.0962Z"
      fill="#EA4335"/>
  </svg>