<?xml version="1.0" encoding="utf-8"?>
<!-- Generator: Adobe Illustrator 27.8.0, SVG Export Plug-In . SVG Version: 6.00 Build 0)  -->
<svg version="1.1" id="Camada_1" xmlns="http://www.w3.org/2000/svg" xmlns:xlink="http://www.w3.org/1999/xlink" x="0px" y="0px"
	 viewBox="0 0 600 166.67" style="enable-background:new 0 0 600 166.67;" xml:space="preserve">
<style type="text/css">
	.st0{fill:#000080;}
</style>
<g>
	<path class="st0" d="M198.64,122.3c-5.45,0-9.92,0-15.16,0c0-7.72,0.01-15.13,0-22.54c-0.01-7.26,0.25-14.54-0.1-21.79
		c-0.48-9.89-6.57-15.44-15.96-15.13c-9.1,0.3-15,6.57-15.04,16.18c-0.05,14.27-0.01,28.53-0.01,43.19c-5.3,0-9.98,0-15.16,0
		c0-23.57,0-47.09,0-71.01c4.48,0,8.92,0,13.58,0c0.26,2.1,0.5,4.09,0.88,7.18c6.9-6.35,14.18-9.78,23.24-9.19
		c9.03,0.59,15.4,5.13,20.9,12.3c6.83-9.67,15.87-13.3,27.09-12.06c12.64,1.39,22.23,10.33,22.71,23.08
		c0.61,16.36,0.15,32.75,0.15,49.64c-4.83,0-9.44,0-14.83,0c0-11.73,0.1-23.29-0.05-34.84c-0.05-4.32-0.32-8.7-1.1-12.94
		c-1.44-7.77-6.26-11.41-14.51-11.57c-8.17-0.16-14.3,3.87-15.51,11.3c-0.99,6.08-0.97,12.36-1.07,18.55
		C198.53,102.37,198.64,112.09,198.64,122.3z"/>
	<path class="st0" d="M262.39,50.96c5.25,0,9.77,0,14.76,0c0.24,2.67,0.47,5.24,0.82,9.18c10.04-10.52,21.91-12.37,34.63-10.28
		c7.72,1.27,13.47,6.04,18.23,12.01c11.37,14.25,10.76,37.77-1.25,51.08c-12.77,14.15-30.35,14.91-51.55,1.68c0,12.74,0,25,0,37.68
		c-5.64,0-10.46,0-15.64,0C262.39,118.48,262.39,84.99,262.39,50.96z M322.95,87.3c0.15-14.27-9.36-25-22.44-25.31
		c-12.75-0.3-22.65,9.82-22.88,23.38c-0.26,15.44,8.69,25.23,23.21,25.36C314.51,110.86,322.79,102.08,322.95,87.3z"/>
	<path class="st0" d="M16.94,109.89c3.96-3.79,7.39-7.07,10.28-9.84c7.46,3.42,14.3,7.14,21.56,9.7c6.34,2.24,12.79,0.47,18.4-3.05
		c8.59-5.38,8.65-18.57-0.38-23.19c-7.07-3.62-15.07-5.43-22.68-7.98C36.03,72.82,28.97,68.73,25,60.8
		c-6.46-12.87-2.17-28.16,9.97-36.09C50.5,14.55,74.26,17,87.69,30.78c-3,3.15-6.03,6.34-8.41,8.85
		c-6.38-2.53-11.91-5.66-17.81-6.76c-4.54-0.85-9.78,0.16-14.32,1.59c-5.63,1.77-8.39,6.59-8.52,12.5c-0.13,5.89,3.24,9.88,8.31,12
		c7.61,3.18,15.52,5.63,23.18,8.7c13.64,5.48,20.11,14.64,19.52,27.12c-0.59,12.45-9.03,23.38-21.91,27.21
		C48.93,127.58,32.35,122.74,16.94,109.89z"/>
	<path class="st0" d="M552.39,91.45c-18.12,0-35.88,0-54.13,0c-0.37,8.18,3.63,13.38,9.77,16.92c12.15,7,22.53,2.95,31.69-6.12
		c3.28,2.69,6.3,5.17,9.32,7.64c-12.8,15.86-33.5,19.06-51.32,8.1c-14.79-9.09-20.64-30.01-13.08-46.72
		c8.11-17.93,26.4-26.05,45.41-20.15C545.78,55.99,555.38,72.88,552.39,91.45z M498.54,79.98c12.66,0,25.33,0,37.99,0
		c0.36-11.26-7.11-18.51-18.67-18.56C505.99,61.36,498.11,68.81,498.54,79.98z"/>
	<path class="st0" d="M434.67,122.02c-6.76,0-12.9,0-19.36,0c-1.21-5.92-0.65-10.8,3.37-15.65c11.34-13.67,22.24-27.72,34.2-42.74
		c-12.35,0-23.52,0-35.11,0c0-4.65,0-8.45,0-12.61c19.09,0,38.05,0,59.04,0c-1.82,4.28-2.65,8.24-4.88,11.12
		c-10.63,13.76-21.24,27.58-32.68,40.65C434.15,108.62,435.12,114.91,434.67,122.02z"/>
	<path class="st0" d="M352.18,18.77c5.37,0,10.06,0,15.11,0c0,34.56,0,68.82,0,103.47c-5.06,0-9.89,0-15.11,0
		C352.18,87.72,352.18,53.46,352.18,18.77z"/>
	<path class="st0" d="M104.65,122.28c0-23.85,0-47.35,0-71.23c5.15,0,9.98,0,15.13,0c0,23.83,0,47.34,0,71.23
		C114.78,122.28,110.1,122.28,104.65,122.28z"/>
	<path class="st0" d="M580.83,122.35c-4.93,0-9.63,0-14.83,0c0-23.56,0-47.09,0-71.14c4.63,0,9.48,0,14.83,0
		C580.83,74.52,580.83,98.06,580.83,122.35z"/>
	<path class="st0" d="M401,51.18c0,23.75,0,47.28,0,71.13c-4.82,0-9.29,0-14.31,0c0-23.6,0-47.12,0-71.13
		C391.05,51.18,395.69,51.18,401,51.18z"/>
	<path class="st0" d="M459.36,85.78c2.86,0,5.48,0,8.97,0c0,8.84,0,17.83,0,26.92c2.82,0.36,4.81,0.61,7.13,0.9
		c0,2.56,0,4.97,0,7.91c-5.16,0-10.4,0-16.1,0C459.36,109.59,459.36,97.87,459.36,85.78z"/>
	<path class="st0" d="M393.96,38.44c-6.07,0.05-9.63-3.33-9.82-9.33c-0.18-5.66,3.71-9.52,9.59-9.53c5.81-0.01,9.82,3.79,9.91,9.39
		C403.74,34.7,399.97,38.39,393.96,38.44z"/>
	<path class="st0" d="M113,19.43c5.53,0.1,9.43,3.94,9.39,9.25c-0.04,5.36-4.53,9.53-10.12,9.41c-5.26-0.12-9.18-4.18-9.2-9.52
		C103.06,22.76,106.79,19.33,113,19.43z"/>
	<path class="st0" d="M583.06,28.73c0.1,4.8-4.14,9.11-9,9.14c-5.04,0.03-9.83-4.56-9.74-9.36c0.09-4.77,4.44-8.79,9.46-8.74
		C578.66,19.83,582.96,23.97,583.06,28.73z"/>
	<path class="st0" d="M444.35,102.05c2.52,0,4.67,0,7.22,0c0,6.63,0,12.9,0,19.57c-2.42,0-4.58,0-7.22,0
		C444.35,115.11,444.35,108.69,444.35,102.05z"/>
</g>
</svg>
