<?xml version="1.0" encoding="utf-8"?>
<!-- Generator: Adobe Illustrator 27.8.0, SVG Export Plug-In . SVG Version: 6.00 Build 0)  -->
<svg version="1.1" id="Camada_1" xmlns="http://www.w3.org/2000/svg" xmlns:xlink="http://www.w3.org/1999/xlink" x="0px" y="0px"
	 viewBox="0 0 600 197.89" style="enable-background:new 0 0 600 197.89;" xml:space="preserve">
<style type="text/css">
	.st0{fill:#FFFFFF;}
</style>
<g>
	<path class="st0" d="M196.67,136.61c-5.33,0-9.89,0-15.46,0c0-3.05,0-5.9,0-8.76c0-11.83,0.18-23.66-0.07-35.48
		c-0.22-10.58-6.29-16.52-16.04-16.31c-9.58,0.2-15.58,6.63-15.61,16.83c-0.04,14.33-0.01,28.67-0.01,43.49c-5.36,0-10.27,0-15.58,0
		c0-23.99,0-47.77,0-72.06c4.48,0,8.99,0,13.95,0c0.24,1.84,0.49,3.85,0.91,7.1c6.97-6.21,14.29-9.87,23.42-9.28
		c9.21,0.6,15.9,4.92,21.5,12.59c6.88-9.66,15.99-13.58,27.44-12.36c12.52,1.34,22.48,9.47,23.21,21.99
		c1.01,17.2,0.25,34.51,0.25,52.16c-4.93,0-9.47,0-15.01,0c0-2.98,0.06-5.83-0.01-8.69c-0.35-13.48-0.22-26.99-1.32-40.41
		c-0.63-7.7-6.52-11.36-14.99-11.42c-7.93-0.05-14.19,4.08-15.42,11.23c-0.99,5.77-1.03,11.73-1.12,17.61
		C196.56,115.2,196.67,125.54,196.67,136.61z"/>
	<path class="st0" d="M277.53,128.18c0,13.55,0,25.91,0,38.81c-5.47,0-10.38,0-15.76,0c0-34.12,0-68.19,0-102.71
		c4.89,0,9.82,0,15.04,0c0.21,2.62,0.42,5.23,0.66,8.12c21.36-14.39,39.76-13.76,52.95,1.49c12.66,14.63,12.27,39.32-0.46,53.44
		C319.68,138.74,297.13,144.93,277.53,128.18z M301.17,124.81c13.78,0.06,22.13-9.02,22.23-24.17c0.1-14.36-9.98-25.42-23.19-25.44
		c-13.11-0.02-22.87,10.21-23.01,24.12C277.03,115.01,286.2,124.75,301.17,124.81z"/>
	<path class="st0" d="M11.43,123.89c4.17-3.95,7.67-7.27,10.51-9.95c7.35,3.38,14,6.83,20.95,9.54c6.48,2.53,12.9,1.03,18.82-2.31
		c9.63-5.44,10.17-19.17,0.37-24.18c-7.21-3.68-15.36-5.55-23.16-8.04c-15.45-4.93-24.06-16.16-21.68-31.11
		c0.99-6.2,4.43-13.08,8.9-17.45c14.35-14.03,43.05-12.25,57.79,3.56c-3.53,2.74-7.11,5.51-10.99,8.51
		c-7.74-5.31-16.6-9.8-27.44-6.73c-6.93,1.96-11.28,6.56-11.86,13.12c-0.61,6.97,3.32,11.22,9.14,13.65
		c7.56,3.16,15.46,5.51,23.07,8.56c13.61,5.45,20.09,14.55,19.71,27.08c-0.38,12.67-8.87,24.02-21.93,27.98
		C44.26,141.99,27.13,137.18,11.43,123.89z"/>
	<path class="st0" d="M557.45,105.22c-18.61,0-36.89,0-55.52,0c0.19,8.97,4.54,14.45,11.6,17.98c12.04,6.02,21.95,1.69,30.79-7.03
		c3.28,2.65,6.37,5.14,9.45,7.63c-10.61,15.13-31.95,19.2-49.83,9.82c-17.88-9.37-22.56-29.92-16.27-47.6
		c6.61-18.57,25.28-27.24,45.4-22.22C549.74,67.95,559.95,84.77,557.45,105.22z M541.26,93.66c-0.17-12.78-8.15-19.58-21.3-18.98
		c-10.71,0.5-18.34,8.69-17.39,18.98C515.33,93.66,528.13,93.66,541.26,93.66z"/>
	<path class="st0" d="M456.13,76.52c-13.1,0-24.39,0-36.1,0c0-4.45,0-8.31,0-12.51c19.56,0,38.88,0,60.29,0
		c-1.92,4.43-2.81,8.46-5.1,11.41c-10.83,14-21.63,28.08-33.32,41.36c-5.24,5.95-4.05,12.39-4.63,19.33c-6.62,0-13.03,0-19.62,0
		c-1.72-6.23-0.38-11.27,3.79-16.29C432.86,106.06,443.84,91.93,456.13,76.52z"/>
	<path class="st0" d="M353.21,31.21c5.41,0,10.2,0,15.37,0c0,35.15,0,70.01,0,105.29c-5.11,0-10.03,0-15.37,0
		C353.21,101.42,353.21,66.56,353.21,31.21z"/>
	<path class="st0" d="M116.12,136.6c-5.04,0-9.82,0-15.1,0c0-23.95,0-47.86,0-72.34c4.74,0,9.67,0,15.1,0
		C116.12,87.95,116.12,111.88,116.12,136.6z"/>
	<path class="st0" d="M586.29,136.62c-5.02,0-9.8,0-15.11,0c0-23.96,0-47.9,0-72.39c4.71,0,9.65,0,15.11,0
		C586.29,87.95,586.29,111.9,586.29,136.62z"/>
	<path class="st0" d="M388.25,63.96c5.14,0,9.72,0,14.68,0c0,24.2,0,48.14,0,72.52c-4.82,0-9.53,0-14.68,0
		C388.25,112.34,388.25,88.41,388.25,63.96z"/>
	<path class="st0" d="M471.57,126.88c2.89,0.3,4.75,0.49,7.05,0.72c0.2,1.3,0.5,2.68,0.59,4.07c0.08,1.23-0.09,2.48-0.17,4.16
		c-5.55,0-10.88,0-16.63,0c0-12.36,0-24.28,0-36.51c3.09,0,5.79,0,9.16,0C471.57,108.33,471.57,117.32,471.57,126.88z"/>
	<path class="st0" d="M395.56,32.04c5.92-0.01,10.01,3.87,10.1,9.56c0.09,5.84-3.75,9.59-9.89,9.63c-6.42,0.05-10.14-3.72-10-10.13
		C385.9,35.67,389.8,32.05,395.56,32.04z"/>
	<path class="st0" d="M109.17,31.9c5.69,0.03,9.68,3.79,9.76,9.22c0.08,5.51-4.35,9.78-10.11,9.76c-5.41-0.03-9.47-4.05-9.57-9.49
		C99.14,35.41,102.84,31.87,109.17,31.9z"/>
	<path class="st0" d="M588.56,41.75c-0.09,4.86-4.67,9.12-9.57,8.9c-4.92-0.22-9.48-4.64-9.55-9.28c-0.07-5.07,4.69-9.4,10.05-9.12
		C584.5,32.52,588.66,36.88,588.56,41.75z"/>
	<path class="st0" d="M447.13,115.98c2.62,0,4.81,0,7.39,0c0,6.77,0,13.15,0,19.92c-2.51,0-4.71,0-7.39,0
		C447.13,129.23,447.13,122.7,447.13,115.98z"/>
</g>
</svg>
