<svg width="78" height="40" viewBox="0 0 78 40" fill="none" xmlns="http://www.w3.org/2000/svg">
<path d="M6.96573 22.1655C6.96573 22.1655 3.64833 28.187 2.81921 31.5974C1.99009 35.0073 2.81921 39.1548 2.81921 39.1548C2.81921 39.1548 3.22473 38.3235 3.81841 37.4714C4.4121 36.6194 4.98214 36.0148 4.98214 36.0148C4.98214 36.0148 5.14018 36.4155 5.77789 37.2165C6.41561 38.0175 6.92077 38.464 7.56914 38.9792L8.75836 39.9233C8.75836 39.9233 7.55246 36.0845 7.79531 32.5501C8.06365 28.6473 9.94527 25.0964 10.4504 24.1938C11.4135 22.4726 6.96573 22.1655 6.96573 22.1655Z" fill="#F7CC1C"/>
<path d="M12.2641 23.4903C12.2641 23.4903 11.5504 30.1903 13.9919 33.3176C15.2631 34.9462 15.2631 34.9462 15.2631 34.9462L15.4101 35.1149C15.4101 35.1149 15.5732 31.8024 15.7525 31.044C15.9319 30.2856 15.9643 30.1919 15.9643 30.1919C15.9643 30.1919 17.4803 31.2776 20.61 30.8843C20.61 30.8843 18.6362 29.2967 17.3681 26.9704C16.3861 25.1689 16.0366 22.6967 16.0297 21.618C16.0297 21.6185 12.101 20.8138 12.2641 23.4903Z" fill="#F7CC1C"/>
<path d="M22.5139 12.6778L20.9613 14.0132L22.1932 15.7338L20.407 16.6029L21.2417 18.6136L19.3262 18.9643L19.7169 21.1459L17.7839 20.9617L17.7116 23.1875L15.8726 22.4791L15.3382 24.6207L13.7013 23.4254L12.7336 25.3557L11.3938 23.7441L10.0544 25.3557L9.08624 23.4254L7.44979 24.6207L6.91496 22.4791L5.07598 23.1875L5.00368 20.9617L3.07062 21.1459L3.46177 18.9643L1.54632 18.6136L2.38054 16.6029L0.594849 15.7338L1.82671 14.0132L0.274139 12.6778L1.82671 11.3425L0.594849 9.62188L2.38054 8.75277L1.54632 6.74207L3.46177 6.39135L3.07062 4.2098L5.00368 4.39395L5.07644 2.16823L6.91543 2.87608L7.44979 0.734986L9.08624 1.93034L10.0544 0L11.3938 1.61154L12.7336 0L13.7013 1.93034L15.3382 0.734986L15.8726 2.87661L17.7116 2.16823L17.7839 4.39395L19.7174 4.2098L19.3262 6.39135L21.2417 6.74207L20.407 8.75277L22.1932 9.62188L20.9613 11.3425L22.5139 12.6778Z" fill="#009448"/>
<path d="M11.3931 21.9657C15.8599 21.9657 19.4809 17.8075 19.4809 12.678C19.4809 7.5486 15.8599 3.39038 11.3931 3.39038C6.92641 3.39038 3.30541 7.5486 3.30541 12.678C3.30541 17.8075 6.92641 21.9657 11.3931 21.9657Z" fill="#7BC251"/>
<path d="M25.9984 1.80089C26.003 1.80248 26.0595 1.81526 26.0637 1.83921C26.0665 1.85464 26.0554 1.87114 26.0475 1.88232C26.0262 1.91159 25.996 1.93767 25.9664 1.9547C25.8769 2.00632 25.7847 2.05209 25.7004 2.11543C25.642 2.1596 24.9862 2.59442 24.9259 2.6322C24.8476 2.68702 24.7674 2.73865 24.69 2.79506C24.5997 2.86585 24.5056 2.92971 24.4124 2.99464C24.2817 3.08033 24.1557 3.17506 24.0319 3.27299C23.8771 3.38848 23.7237 3.50716 23.5722 3.62797C22.68 4.30655 21.8287 5.04792 21.0019 5.82708C20.7966 6.0208 20.5922 6.21559 20.3906 6.41358C19.7093 7.08097 19.0359 7.75848 18.4061 8.4908C17.6683 9.23856 17.0115 10.0784 16.3367 10.898C15.8126 11.5345 15.3079 12.1902 14.8087 12.8518C14.2188 13.6346 13.6455 14.434 13.0852 15.2451C12.3019 16.3793 11.5521 17.5421 10.8203 18.7205C10.7901 18.7689 10.7619 18.8195 10.7341 18.87C10.6873 18.9419 10.6437 19.0174 10.5946 19.0872C10.5756 19.117 10.5584 19.1478 10.5362 19.175C10.5023 19.2085 10.4657 19.2255 10.4222 19.1995C10.3772 19.142 9.45168 17.0594 8.95857 16.1227C8.60866 15.458 8.20082 14.839 7.82357 14.1961C7.53808 13.6937 6.35396 11.9624 6.05642 11.5952C5.97764 11.4978 3.21314 7.98148 3.17791 7.93943C3.14501 7.90058 3.11303 7.8612 3.08059 7.82181C2.99578 7.71856 2.733 7.41893 2.68897 7.36943C2.6505 7.32632 2.46976 7.13579 2.51286 7.06873C2.55364 7.00486 2.61899 7.04744 2.67182 7.06926C3.27385 7.31568 3.86429 7.59562 4.44685 7.89792C4.47883 7.91229 4.50988 7.92879 4.54093 7.94528C4.77683 8.09111 5.0308 8.19489 5.26716 8.34019C5.51465 8.47643 5.74498 8.64994 5.99571 8.77873C6.20241 8.91604 6.40957 9.05176 6.61766 9.18747C6.76782 9.29764 6.9254 9.39397 7.07278 9.50893C7.3235 9.68136 7.56218 9.87456 7.80689 10.0571C7.99737 10.196 8.17255 10.3599 8.3584 10.5063C8.63044 10.7383 8.89832 10.9762 9.16063 11.2227C9.41044 11.4579 9.6519 11.7048 9.89382 11.9502C10.1552 12.2418 10.437 12.5085 10.6817 12.8193C10.7535 12.9103 10.7957 12.8651 10.8471 12.7985C11.4598 12.0093 12.1226 11.2743 12.7867 10.5446C13.3896 9.88148 14.5209 8.47909 16.0925 7.1954C18.052 5.59503 20.4796 4.12666 20.9147 3.89035C21.5881 3.52366 22.2717 3.18411 22.9674 2.87436C23.5282 2.62475 25.0362 2.05103 25.2235 1.99408C25.4181 1.93554 25.61 1.86688 25.8042 1.80674C25.844 1.7945 25.8844 1.78173 25.9256 1.78492C25.9502 1.78545 25.9747 1.7929 25.9984 1.80089Z" fill="#FEFEFE"/>
<path d="M49.342 15.6765C49.342 18.4549 49.3391 21.2326 49.3471 24.011C49.3477 24.2329 49.2945 24.2802 49.1099 24.2776C48.3026 24.2658 47.4954 24.2631 46.6881 24.2789C46.4886 24.2828 46.4595 24.2093 46.4595 24.0045C46.4646 19.4068 46.4612 14.8099 46.4686 10.2123C46.4692 9.96802 46.424 9.88859 46.2033 9.90434C45.8689 9.92863 45.5322 9.905 45.1966 9.91353C45.0731 9.91681 45.0394 9.86955 45.0405 9.73168C45.0451 8.89592 45.0451 8.06017 45.0411 7.22376C45.0405 7.09574 45.0748 7.05569 45.1874 7.05569C46.5235 7.05963 47.859 7.0616 49.1951 7.05372C49.3769 7.05241 49.3426 7.17584 49.3426 7.2927C49.342 10.0875 49.342 12.8817 49.342 15.6765Z" fill="#88BA40"/>
<path d="M55.9353 29.827C56.2097 29.4581 56.5544 29.2493 56.9815 29.2532C57.3657 29.2572 57.6378 29.4515 57.7293 29.9459C57.9728 29.5756 58.2369 29.3274 58.6183 29.2696C59.2637 29.1712 59.6445 29.5519 59.5702 30.2886C59.4621 31.3613 59.3232 32.4301 59.2037 33.5016C59.1894 33.6309 59.1437 33.6624 59.0402 33.6605C58.6829 33.6552 58.3256 33.6526 57.9688 33.6611C57.8333 33.6644 57.8167 33.5994 57.8322 33.4688C57.9225 32.7065 58.0077 31.9437 58.0975 31.1814C58.118 31.0055 58.1501 30.8243 57.9454 30.7672C57.7939 30.7252 57.6561 30.863 57.6218 31.1086C57.5663 31.5044 57.5275 31.903 57.4817 32.3002C57.4366 32.698 57.3885 33.0952 57.3491 33.4931C57.3371 33.6152 57.2954 33.6618 57.1867 33.6598C56.8369 33.6539 56.4864 33.6506 56.1365 33.6611C55.9953 33.6651 55.9656 33.6073 55.9839 33.4596C56.0656 32.7873 56.1428 32.1137 56.2194 31.4401C56.2354 31.3022 56.2463 31.1631 56.252 31.0245C56.2571 30.9123 56.2366 30.8066 56.1251 30.7718C56.0193 30.7383 55.9273 30.7718 55.8564 30.8702C55.7952 30.9549 55.7706 31.0547 55.7586 31.1637C55.6752 31.9023 55.5837 32.6396 55.5071 33.3788C55.4859 33.583 55.4385 33.6795 55.2361 33.6644C54.9302 33.6414 54.6221 33.65 54.3151 33.6618C54.1641 33.6677 54.1047 33.6447 54.1298 33.4399C54.2619 32.3704 54.3797 31.299 54.502 30.2282C54.53 29.9846 54.5569 29.741 54.5821 29.4975C54.5935 29.3819 54.6346 29.3314 54.7461 29.3353C55.0314 29.3451 55.3178 29.3386 55.6031 29.3386C55.9061 29.3386 55.9061 29.3386 55.8895 29.6754C55.8615 29.8027 55.8638 29.81 55.9353 29.827Z" fill="#88BA40"/>
<path d="M72.7626 27.5182C72.9627 27.5182 73.1628 27.5215 73.3624 27.5169C73.4624 27.5143 73.5127 27.5189 73.4938 27.6732C73.3429 28.9212 73.2017 30.1706 73.0582 31.4199C73.0479 31.5092 73.0416 31.5992 73.0348 31.6884C73.0199 31.8893 73.0371 32.0732 73.2457 32.1309C73.4275 32.1815 73.6202 32.0535 73.6722 31.823C73.7202 31.6103 73.7425 31.3891 73.7677 31.1705C73.9015 30.0104 74.0347 28.8503 74.1616 27.6896C74.1765 27.5537 74.2171 27.513 74.3342 27.5149C74.7413 27.5228 75.1484 27.5182 75.5554 27.5176C75.6389 27.5176 75.7006 27.5071 75.6829 27.6561C75.5142 29.042 75.3559 30.4286 75.1884 31.8145C75.1678 31.9832 75.1198 32.1487 75.0735 32.3115C74.8213 33.1932 74.2805 33.6626 73.4847 33.7532C73.172 33.7887 72.8575 33.7847 72.5471 33.7112C71.9554 33.5714 71.6209 33.144 71.5392 32.4572C71.4654 31.8368 71.5844 31.2341 71.6484 30.6275C71.749 29.669 71.8702 28.7131 71.9731 27.7552C71.9926 27.5767 72.0349 27.4959 72.2058 27.5136C72.3899 27.5333 72.5768 27.5182 72.7626 27.5182Z" fill="#0C7A3F"/>
<path d="M41.9719 30.8433C42.4178 30.5932 42.7174 30.1993 42.8409 29.6366C43.0215 28.8127 42.7929 28.1069 42.2172 27.7537C41.9547 27.5929 41.6683 27.5226 41.3728 27.5193C40.8085 27.5141 40.2448 27.522 39.6805 27.5147C39.5445 27.5128 39.4879 27.5417 39.4678 27.7196C39.2535 29.6333 39.0311 31.5464 38.8035 33.4589C38.7824 33.6381 38.8355 33.6644 38.9699 33.6611C39.3266 33.6532 39.6851 33.6375 40.0401 33.6664C40.2688 33.6847 40.3105 33.5725 40.3317 33.3525C40.394 32.7118 40.474 32.073 40.5472 31.4329C40.5569 31.4329 40.5667 31.4329 40.5758 31.4329C40.6913 32.1032 40.8142 32.7722 40.9177 33.4451C40.9457 33.6283 41.0103 33.6657 41.1555 33.6618C41.5483 33.6513 41.941 33.648 42.3332 33.6624C42.531 33.6696 42.5379 33.5974 42.4841 33.4083C42.2703 32.6547 42.0742 31.8937 41.8593 31.1407C41.813 30.9779 41.8444 30.9149 41.9719 30.8433ZM40.932 30.1999C40.7233 30.28 40.6896 30.2492 40.709 29.9971C40.7525 29.6419 40.8005 29.2874 40.8354 28.9309C40.8479 28.8041 40.8982 28.7818 40.9891 28.8015C41.1544 28.837 41.2761 28.9243 41.3265 29.1252C41.4334 29.5513 41.2424 30.0804 40.932 30.1999Z" fill="#88BA40"/>
<path d="M76.2434 33.6579C76.0433 33.6579 75.8432 33.652 75.6437 33.6605C75.5265 33.6658 75.4779 33.6375 75.4956 33.4852C75.6888 31.84 75.8769 30.1941 76.0667 28.5482C76.1004 28.256 76.1445 27.9658 76.1662 27.6724C76.1765 27.5358 76.2268 27.5161 76.3268 27.5168C76.7265 27.5207 77.1266 27.5266 77.5257 27.5142C77.6732 27.5096 77.6875 27.5719 77.6709 27.7131C77.5343 28.8718 77.4016 30.0319 77.2673 31.1913C77.1792 31.9536 77.0872 32.7151 77.0054 33.478C76.99 33.6237 76.9477 33.6704 76.8202 33.6618C76.6298 33.648 76.4366 33.6579 76.2434 33.6579Z" fill="#0C7A3F"/>
<path d="M49.1896 33.6586C49.0256 33.6586 48.8603 33.6461 48.6974 33.6618C48.5293 33.6783 48.5133 33.5949 48.5322 33.4321C48.7757 31.3489 49.0164 29.2651 49.252 27.1807C49.2708 27.0152 49.308 26.9351 49.4721 26.9423C49.8071 26.9568 50.1432 26.9535 50.4788 26.9437C50.616 26.9397 50.6475 26.987 50.6292 27.1406C50.5206 28.0565 50.4222 28.9736 50.3165 29.8901C50.1793 31.0817 50.034 32.2726 49.9037 33.4655C49.8854 33.6316 49.834 33.6691 49.7042 33.6612C49.5327 33.6513 49.3612 33.6586 49.1896 33.6586Z" fill="#88BA40"/>
<path d="M48.3491 32.2497C48.3011 32.6798 48.2565 33.0986 48.2062 33.5168C48.193 33.6252 48.1016 33.6416 48.0284 33.6685C47.2783 33.9469 46.283 33.7433 46.1578 32.3725C46.0669 31.3805 46.2372 30.4581 46.8816 29.7313C47.3332 29.2219 47.8912 29.1313 48.4915 29.302C48.6264 29.34 48.6893 29.4116 48.659 29.5954C48.6075 29.9079 48.5852 30.227 48.5515 30.5434C48.5395 30.6531 48.5241 30.7148 48.3954 30.6649C48.1633 30.575 47.9981 30.6524 47.862 30.8855C47.6745 31.2072 47.6316 31.5702 47.6734 31.9438C47.7025 32.2071 47.8483 32.3252 48.0793 32.3042C48.1616 32.297 48.2433 32.2721 48.3491 32.2497Z" fill="#88BA40"/>
<path d="M30.5572 2.2307C30.5572 1.59978 30.5612 0.968867 30.5543 0.338605C30.5526 0.193514 30.5778 0.13968 30.7167 0.142963C31.1952 0.153467 31.6737 0.146244 32.1522 0.147557C32.2277 0.147557 32.3089 0.123267 32.3117 0.271641C32.3152 0.433802 32.2277 0.410166 32.1437 0.410166C31.7578 0.410166 31.3724 0.415419 30.9871 0.406884C30.8579 0.404258 30.7979 0.425923 30.8042 0.601214C30.8173 0.977401 30.8139 1.3549 30.8053 1.73175C30.8019 1.87552 30.8448 1.90769 30.9625 1.90507C31.3479 1.89719 31.7338 1.90179 32.1191 1.90244C32.1923 1.90244 32.274 1.87093 32.2774 2.0239C32.2809 2.18409 32.2008 2.16571 32.1139 2.16571C31.7355 2.16439 31.357 2.16965 30.9785 2.16242C30.8585 2.1598 30.8013 2.17884 30.8047 2.34428C30.815 2.86031 30.8139 3.37633 30.8053 3.89236C30.803 4.0427 30.8539 4.0624 30.9654 4.06043C31.365 4.05386 31.7652 4.05846 32.1648 4.05715C32.2477 4.05649 32.3163 4.04861 32.3123 4.19173C32.3089 4.31976 32.2471 4.31253 32.1728 4.31253C31.68 4.31188 31.1872 4.30794 30.6944 4.31582C30.5772 4.31779 30.5543 4.27117 30.5555 4.1484C30.56 3.50829 30.5572 2.8695 30.5572 2.2307Z" fill="#020202"/>
<path d="M48.4584 3.51627C48.543 3.79661 48.4178 3.93251 48.236 4.05725C47.4316 4.60807 46.4186 4.40783 45.8017 3.56617C45.2277 2.78359 45.2311 1.65963 45.8103 0.8869C46.4351 0.0531164 47.4459 -0.142527 48.2263 0.412891C48.4092 0.543538 48.5464 0.686661 48.4595 0.978157C48.1051 0.589496 47.6946 0.338046 47.1892 0.362994C46.6873 0.387942 46.2899 0.653835 45.9801 1.09502C45.4547 1.84345 45.513 2.90242 46.107 3.54188C46.8125 4.30082 47.6712 4.29556 48.4584 3.51627Z" fill="#010101"/>
<path d="M29.2254 0.984986C28.3152 0.00676842 27.3908 0.327808 26.8797 0.90686C26.272 1.59555 26.2079 2.65255 26.7293 3.37604C27.3822 4.28139 28.2352 4.33391 29.2202 3.53098C29.29 3.77455 29.1922 3.9157 29.0133 4.04241C28.3478 4.51182 27.5257 4.47243 26.8848 3.92424C26.2668 3.39639 25.9907 2.50418 26.1908 1.68221C26.3972 0.832019 27.0718 0.200443 27.855 0.113782C28.2689 0.0678257 28.6474 0.176808 28.9961 0.4276C29.2465 0.607487 29.2448 0.610769 29.2254 0.984986Z" fill="#010101"/>
<path d="M41.1046 2.2321C41.1046 1.60906 41.1092 0.986676 41.1012 0.363636C41.0989 0.199506 41.1264 0.135823 41.2842 0.141731C41.6621 0.155518 42.0411 0.146983 42.4196 0.14567C42.5007 0.14567 42.5722 0.134509 42.5728 0.276975C42.5733 0.418127 42.5047 0.41025 42.4218 0.409594C42.1217 0.407624 41.8216 0.414846 41.522 0.405655C41.3991 0.401715 41.3453 0.424694 41.3505 0.588168C41.3625 0.964355 41.3619 1.34251 41.3505 1.7187C41.3453 1.87955 41.3945 1.90778 41.5203 1.90318C41.813 1.89333 42.1057 1.90318 42.399 1.89793C42.4922 1.89662 42.5465 1.91237 42.5436 2.04171C42.5408 2.16579 42.4784 2.16448 42.4024 2.16382C42.1166 2.16185 41.8301 2.17695 41.5454 2.15791C41.3756 2.14675 41.3482 2.21765 41.351 2.39229C41.3602 2.96543 41.3539 3.53923 41.3556 4.11304C41.3562 4.22399 41.3688 4.31656 41.2207 4.3159C41.0743 4.31524 41.1052 4.21479 41.1052 4.12354C41.1041 3.49393 41.1046 2.86302 41.1046 2.2321Z" fill="#020202"/>
<path d="M37.4182 2.36625C37.4182 2.9558 37.4176 3.54602 37.4187 4.13558C37.4187 4.23602 37.4325 4.32268 37.293 4.31743C37.1592 4.31284 37.1666 4.23274 37.1666 4.12901C37.1678 2.97419 37.1609 1.81871 37.1729 0.663886C37.1752 0.436073 37.1152 0.388147 36.9362 0.405216C36.7521 0.422942 36.5652 0.409811 36.3794 0.408498C36.3039 0.407841 36.2216 0.434103 36.2204 0.284416C36.2193 0.148516 36.2805 0.14392 36.3674 0.144577C36.9814 0.146546 37.5954 0.146546 38.2094 0.144577C38.2963 0.144577 38.358 0.148516 38.3569 0.284416C38.3558 0.434103 38.2734 0.408498 38.198 0.408498C37.9836 0.409811 37.7692 0.416378 37.5554 0.405873C37.4399 0.399965 37.4136 0.44592 37.4147 0.571316C37.421 1.17072 37.4182 1.76881 37.4182 2.36625Z" fill="#030303"/>
<path d="M43.8982 2.21179C43.8982 1.59006 43.8988 0.968333 43.8977 0.346606C43.8977 0.236311 43.8845 0.14046 44.032 0.141117C44.1772 0.141117 44.1486 0.242877 44.1486 0.335447C44.1492 1.60319 44.1486 2.87159 44.1498 4.13934C44.1498 4.24504 44.1532 4.32119 44.0206 4.31725C43.8839 4.31331 43.8977 4.22665 43.8977 4.1262C43.8988 3.48807 43.8982 2.84993 43.8982 2.21179Z" fill="#030303"/>
<path d="M39.4241 2.23738C39.4241 1.60712 39.4229 0.976854 39.4252 0.346593C39.4258 0.259932 39.384 0.146354 39.5333 0.141758C39.6808 0.137163 39.6699 0.234329 39.6693 0.345938C39.6682 1.60646 39.6682 2.86764 39.6693 4.12816C39.6693 4.22992 39.6802 4.31658 39.5441 4.3179C39.4035 4.31921 39.4235 4.22598 39.4235 4.12882C39.4246 3.4979 39.4241 2.86764 39.4241 2.23738Z" fill="#070707"/>
<path d="M55.9356 29.8272C55.9196 29.8521 55.9064 29.8935 55.887 29.8981C55.847 29.9073 55.8527 29.8613 55.8533 29.8331C55.855 29.7779 55.8481 29.6932 55.8847 29.6479C55.9007 29.6985 55.8836 29.7911 55.9356 29.8272Z" fill="#88BA40"/>
<path d="M38.7834 11.0939C38.7583 11.0617 38.7337 11.0295 38.7085 10.9974C38.7085 10.9488 38.7091 10.9002 38.7091 10.8516C38.7571 10.8168 38.7657 10.8674 38.7834 10.8976C38.784 10.9632 38.7834 11.0289 38.7834 11.0939Z" fill="#92C3A9"/>
<path d="M38.7845 10.8976C38.7599 10.8825 38.7348 10.8674 38.7102 10.8517C38.7119 10.8136 38.7045 10.7545 38.7559 10.7716C38.8039 10.7886 38.7868 10.8517 38.7845 10.8976Z" fill="#519F75"/>
<path d="M77.7244 14.9161C77.7119 13.693 77.6101 12.4804 77.3728 11.2862C77.1487 10.1589 76.8092 9.08878 76.1671 8.17227C75.074 6.61238 72.9936 6.34845 71.6341 7.60504C70.9555 8.23267 70.5519 9.07499 70.2574 9.99347C69.8418 11.2888 69.6732 12.6379 69.6074 14.0088C69.5119 16.0105 69.5365 18.0043 69.9184 19.9719C70.1374 21.0999 70.4753 22.172 71.1144 23.0904C72.3276 24.8328 74.5932 24.9714 75.955 23.3806C76.5553 22.6794 76.9063 21.8141 77.1625 20.893C77.6335 19.1959 77.7227 17.4411 77.7244 15.677C77.725 15.4236 77.7273 15.1701 77.7244 14.9161ZM74.7184 19.383C74.6675 19.8387 74.6001 20.289 74.4223 20.7079C74.2651 21.0782 74.037 21.3533 73.6579 21.3566C73.2817 21.3592 73.0393 21.0959 72.877 20.7302C72.6489 20.2168 72.5837 19.6548 72.5334 19.0929C72.4088 17.6978 72.3882 16.2967 72.4139 14.8964C72.4362 13.6949 72.4419 12.4883 72.6614 11.3039C72.7226 10.9743 72.8164 10.6572 72.9896 10.3775C73.3423 9.80833 73.9718 9.81161 74.3125 10.392C74.5887 10.8614 74.6573 11.4076 74.7184 11.9525C74.8568 13.1901 74.8539 14.4355 74.8631 15.6803C74.8556 16.9165 74.8551 18.1534 74.7184 19.383Z" fill="#88BA40"/>
<path d="M60.2644 12.776C60.2216 12.3788 60.1644 11.9823 60.0952 11.5897C59.8974 10.4664 59.5801 9.39889 59.013 8.43709C57.7455 6.28764 54.927 6.26728 53.6338 8.41411C53.113 9.27875 52.7866 10.2346 52.6013 11.2503C52.0948 14.032 52.0948 16.8281 52.5213 19.6209C52.6934 20.7482 53.0215 21.817 53.5784 22.7854C54.8921 25.0707 57.7701 25.0254 59.0387 22.8097C59.4149 22.1525 59.691 21.448 59.882 20.6983C60.301 19.0557 60.4022 17.3684 60.4051 15.3516C60.4119 14.701 60.3685 13.7359 60.2644 12.776ZM57.355 19.6249C57.3099 19.982 57.2413 20.3326 57.1081 20.6628C56.9514 21.0515 56.7222 21.3515 56.3243 21.3548C55.9183 21.3581 55.6771 21.0607 55.5147 20.6648C55.3238 20.198 55.2592 19.6958 55.21 19.1909C55.0499 17.5424 55.0614 15.8873 55.0934 14.2342C55.1128 13.2376 55.1414 12.237 55.3381 11.2575C55.3958 10.9693 55.4753 10.689 55.6182 10.4395C56.0012 9.76983 56.6936 9.79543 57.0366 10.4946C57.2733 10.9765 57.3425 11.5122 57.3962 12.0499C57.5163 13.256 57.5294 14.4679 57.5317 15.8197C57.5248 16.9975 57.5208 18.3164 57.355 19.6249Z" fill="#88BA40"/>
<path d="M68.8425 12.0854C68.6762 10.9489 68.4178 9.84595 67.9038 8.84213C67.4916 8.03658 66.9525 7.384 66.1698 7.05836C64.6005 6.40578 63.0518 7.03604 62.1428 8.68916C61.5808 9.71137 61.3035 10.8517 61.1303 12.0289C60.9262 13.422 60.8759 14.8263 60.9016 16.2379C60.9233 17.4281 60.9999 18.6099 61.2143 19.7752C61.4293 20.9458 61.758 22.0645 62.4046 23.0296C63.6206 24.8435 65.9366 24.9972 67.3138 23.3506C67.9701 22.5661 68.3286 21.5977 68.5801 20.5716C68.9735 18.965 69.0752 17.3185 69.0638 15.5505C69.0792 14.4593 69.0158 13.2677 68.8425 12.0854ZM66.0572 19.3268C66.0046 19.8231 65.9354 20.3149 65.7285 20.7659C65.5718 21.1079 65.3432 21.3495 64.9961 21.3561C64.6508 21.3627 64.4084 21.1395 64.2443 20.8C63.9916 20.2787 63.9236 19.7023 63.871 19.1239C63.7309 17.5896 63.7189 16.0494 63.7532 14.5105C63.7773 13.4319 63.795 12.3493 63.9979 11.287C64.0597 10.9653 64.1506 10.6561 64.3187 10.3836C64.6783 9.80197 65.3134 9.80985 65.6542 10.4053C65.9291 10.8859 65.9989 11.4393 66.0566 11.9928C66.1847 13.2152 66.1973 14.4429 66.191 15.6719C66.1978 16.8931 66.1853 18.1129 66.0572 19.3268Z" fill="#88BA40"/>
<path d="M71.1619 31.6922C71.3329 31.0797 71.4123 30.4501 71.4238 29.8087C71.4266 29.546 71.4101 29.2848 71.3723 29.0254C71.21 27.9015 70.5188 27.2968 69.5377 27.4025C68.7985 27.4826 68.268 27.9277 67.9112 28.64C67.3801 29.699 67.2275 30.8597 67.3658 32.0559C67.4807 33.0492 67.9198 33.6598 68.6676 33.715C69.1615 33.7517 69.3576 34.0314 69.5423 34.4417C69.5555 34.4706 69.576 34.4956 69.5875 34.5251C69.6298 34.6354 69.6927 34.6302 69.7767 34.5855C70.1197 34.4043 70.4627 34.2231 70.8098 34.0537C70.9344 33.9927 70.9098 33.9388 70.8401 33.8482C70.7172 33.6887 70.6062 33.5167 70.4799 33.3611C70.3919 33.2534 70.3793 33.1845 70.4793 33.065C70.8058 32.6757 71.0184 32.2056 71.1619 31.6922ZM69.8127 30.9195C69.7767 31.1775 69.7355 31.4355 69.6601 31.6843C69.6223 31.8091 69.576 31.9279 69.5 32.0284C69.3914 32.1715 69.2524 32.2227 69.0952 32.1813C68.9437 32.1413 68.8786 31.9995 68.8511 31.8406C68.8197 31.6555 68.814 31.4664 68.8282 31.3049C68.862 30.6969 68.9231 30.1198 69.0552 29.5565C69.0867 29.4239 69.1324 29.2926 69.1884 29.1712C69.285 28.9637 69.4423 28.8521 69.6486 28.904C69.8493 28.9545 69.9031 29.1482 69.9156 29.355C69.9494 29.8822 69.8848 30.4022 69.8127 30.9195Z" fill="#0C7A3F"/>
<path d="M67.0677 33.4491C67.0088 32.7815 66.9642 32.1125 66.9133 31.4441C66.819 30.2053 66.7224 28.9664 66.632 27.7269C66.6206 27.5687 66.5829 27.5096 66.4325 27.5142C65.99 27.528 65.547 27.5293 65.1045 27.5135C64.949 27.5076 64.8992 27.5792 64.8546 27.7289C64.5962 28.5942 64.3298 29.4562 64.0662 30.3195C63.7301 31.4205 63.3934 32.5215 63.0458 33.6586C63.4265 33.6586 63.7764 33.6586 64.1263 33.6586C64.5128 33.6586 64.5127 33.6586 64.6151 33.2397C64.7323 32.7585 64.7323 32.7585 65.1725 32.7585C65.6007 32.7585 65.6001 32.7585 65.6053 33.2358C65.6064 33.3172 65.6259 33.3999 65.6173 33.48C65.6001 33.6461 65.6744 33.6638 65.7939 33.6612C66.165 33.654 66.5366 33.6513 66.9076 33.6619C67.0585 33.6658 67.082 33.61 67.0677 33.4491ZM65.4909 31.5039C65.3423 31.4966 65.1931 31.5019 65.0256 31.5019C65.1948 30.8093 65.36 30.1344 65.5247 29.4595C65.551 29.4641 65.5773 29.4686 65.6041 29.4739C65.6041 30.1015 65.6024 30.7292 65.6058 31.3568C65.6058 31.4553 65.5904 31.5091 65.4909 31.5039Z" fill="#0C7A3F"/>
<path d="M54.0439 29.3354C53.7587 29.3439 53.4728 29.338 53.187 29.338C52.8434 29.338 52.8434 29.338 52.7891 29.7588C52.2408 28.8784 51.3318 29.2054 50.9785 29.9C50.5045 30.8316 50.3685 31.842 50.5606 32.8826C50.7263 33.782 51.4999 34.0545 52.1356 33.4866C52.2122 33.4183 52.2865 33.3467 52.378 33.2614C52.378 33.3336 52.3871 33.3776 52.3763 33.4137C52.3134 33.6336 52.3991 33.6711 52.5735 33.6632C52.8942 33.6481 53.2161 33.6514 53.5374 33.6625C53.6729 33.6671 53.7272 33.6159 53.7438 33.4643C53.889 32.1499 54.0359 30.8355 54.1914 29.5231C54.2114 29.3564 54.172 29.3314 54.0439 29.3354ZM52.4277 32.1098C52.3677 32.2707 52.2802 32.4302 52.0984 32.3974C51.9018 32.3619 51.9109 32.1617 51.8949 31.993C51.888 31.9201 51.8938 31.8459 51.8938 31.7724C51.9058 31.4691 51.9361 31.1677 52.0453 30.8881C52.107 30.7298 52.1853 30.5565 52.3654 30.5841C52.5541 30.613 52.5747 30.8165 52.585 30.9833C52.609 31.3706 52.5609 31.7507 52.4277 32.1098Z" fill="#88BA40"/>
<path d="M63.0405 30.5402C62.9862 30.0747 62.8433 29.6631 62.454 29.4352C61.8685 29.0925 60.7566 29.0768 60.1854 29.9788C59.6835 30.7713 59.5526 31.6681 59.7024 32.6148C59.8053 33.2674 60.1774 33.6429 60.7451 33.7466C60.9195 33.7781 61.1019 33.7735 61.2791 33.7617C62.052 33.7079 62.7467 32.9962 62.8547 32.1427C62.5752 32.1427 62.2973 32.1493 62.02 32.1401C61.8417 32.1342 61.6976 32.1355 61.6153 32.3797C61.5541 32.5603 61.3929 32.6575 61.2071 32.6102C61.0053 32.559 60.9755 32.3686 60.9635 32.1743C60.9584 32.0928 60.9641 32.0108 60.9664 31.9287C60.9704 31.7541 61.0293 31.6819 61.1996 31.6865C61.7348 31.7016 62.2704 31.6904 62.8061 31.693C62.9062 31.6937 62.9896 31.6911 63.0062 31.5433C63.0417 31.2092 63.08 30.8757 63.0405 30.5402ZM61.4523 30.9498C61.3689 30.9525 61.286 30.9735 61.2025 30.9663C61.1785 30.9643 61.1539 30.9551 61.1362 30.9367C61.0807 30.8789 61.1025 30.766 61.1248 30.6971C61.1585 30.5927 61.2168 30.4975 61.2825 30.4167C61.3449 30.3399 61.4306 30.2474 61.5261 30.2342C61.7027 30.2093 61.8388 30.3498 61.8651 30.5828C61.8742 30.6623 61.8903 30.7496 61.88 30.8297C61.8685 30.9177 61.7839 30.9466 61.7182 30.9525C61.6313 30.9603 61.5444 30.9485 61.4575 30.9505C61.4563 30.9498 61.4546 30.9498 61.4523 30.9498Z" fill="#88BA40"/>
<path d="M46.0678 30.6361C46.0261 30.1653 45.9089 29.7333 45.527 29.4701C44.8998 29.0374 43.8908 29.1648 43.378 29.7649C42.7382 30.5139 42.6045 31.4515 42.6919 32.4467C42.756 33.1768 43.139 33.6232 43.7627 33.7473C43.9462 33.7841 44.1326 33.7769 44.3179 33.7604C45.0851 33.6909 45.7763 32.9759 45.8706 32.1415C45.6196 32.1415 45.3704 32.1526 45.1222 32.1382C44.901 32.1257 44.714 32.1277 44.6077 32.4198C44.5482 32.5826 44.391 32.6509 44.2247 32.6089C44.0446 32.5629 43.9988 32.4001 43.9845 32.2209C43.976 32.1159 43.9845 32.0082 43.9857 31.9025C43.9868 31.7397 44.052 31.6845 44.1984 31.6871C44.7409 31.697 45.2835 31.6871 45.826 31.6944C45.9461 31.6957 46.0158 31.6635 46.029 31.5171C46.0547 31.2243 46.0941 30.9308 46.0678 30.6361ZM44.8884 30.8639C44.8661 30.9479 44.8192 30.9545 44.7598 30.9545C44.6603 30.9538 44.5608 30.9545 44.4431 30.9545C44.3476 30.9289 44.1795 31.0273 44.1309 30.9046C44.0846 30.7877 44.1875 30.6308 44.2515 30.5054C44.3767 30.2599 44.5357 30.1778 44.7032 30.2651C44.8575 30.3439 44.9462 30.6452 44.8884 30.8639Z" fill="#88BA40"/>
<path d="M59.0412 0.0976616C58.0024 0.0950355 57.1466 1.06078 57.1466 2.23595C57.146 3.40062 57.9932 4.3598 59.0235 4.36112C60.0714 4.36177 60.9226 3.40653 60.9192 2.23201C60.9158 1.06866 60.064 0.100288 59.0412 0.0976616ZM58.9663 4.10639C58.0962 4.08603 57.3815 3.19973 57.3964 2.15783C57.4107 1.18289 58.1848 0.344514 59.056 0.36027C59.9336 0.376027 60.6808 1.24198 60.6751 2.23595C60.6694 3.28245 59.897 4.12805 58.9663 4.10639Z" fill="#010101"/>
<path d="M54.7272 0.193585C54.3962 0.123337 54.0583 0.153538 53.7227 0.143034C53.5872 0.139095 53.554 0.189646 53.5558 0.338676C53.5626 0.969594 53.5586 1.60051 53.5586 2.23143C53.5586 2.86235 53.5586 3.49327 53.5581 4.12418C53.5581 4.22398 53.542 4.31983 53.681 4.31392C53.9731 4.30079 54.2681 4.32377 54.5585 4.29488C55.4458 4.20625 56.0998 3.38166 56.145 2.31678C56.1896 1.28735 55.5859 0.375442 54.7272 0.193585ZM55.8952 2.33122C55.8586 3.27858 55.2177 4.00732 54.3784 4.05525C53.8027 4.08873 53.8027 4.08873 53.8027 3.43549C53.8027 3.03436 53.8027 2.63322 53.8027 2.23274C53.8027 1.68455 53.8062 1.13569 53.7999 0.587499C53.7982 0.450942 53.8279 0.39645 53.9531 0.406298C54.152 0.422711 54.3544 0.401046 54.5511 0.433216C55.3761 0.567803 55.9329 1.36154 55.8952 2.33122Z" fill="#010101"/>
<path d="M34.2991 2.35298C34.4106 2.34379 34.4752 2.34247 34.5386 2.33263C35.0606 2.25122 35.3424 1.8317 35.3236 1.16533C35.3076 0.600065 34.9697 0.201557 34.4723 0.169387C34.2585 0.155601 34.0441 0.160197 33.8309 0.143127C33.6976 0.132623 33.6622 0.185801 33.6628 0.336145C33.6679 1.59798 33.6656 2.86047 33.6656 4.12231C33.6656 4.22013 33.6479 4.31401 33.7874 4.31598C33.9263 4.31795 33.9097 4.22801 33.9097 4.12887C33.9086 3.60431 33.908 3.07975 33.9109 2.55519C33.9115 2.48757 33.8743 2.39172 33.9458 2.35626C34.039 2.31031 34.0618 2.42454 34.099 2.4856C34.4289 3.02985 34.7622 3.57083 35.08 4.12428C35.1778 4.29432 35.2795 4.34946 35.4591 4.28316C35.0737 3.64239 34.6958 3.01344 34.2991 2.35298ZM33.9092 1.59667C33.9092 1.48243 33.9092 1.36754 33.9092 1.2533C33.9092 1.04913 33.9229 0.842979 33.9052 0.64077C33.8869 0.433309 33.9635 0.386039 34.1207 0.408361C34.1979 0.419521 34.2774 0.414927 34.3557 0.41821C34.8045 0.436593 35.068 0.728744 35.08 1.22114C35.0915 1.71221 34.8188 2.05032 34.3814 2.08709C33.9092 2.12582 33.9092 2.12582 33.9092 1.59667Z" fill="#030303"/>
<path d="M50.9692 0C50.4524 1.46207 49.9533 2.8736 49.4536 4.28775C49.6469 4.35931 49.7189 4.27265 49.7732 4.0967C49.8756 3.76647 50.0042 3.44674 50.1134 3.11914C50.1546 2.9944 50.2111 2.94516 50.3324 2.94779C50.7531 2.95698 51.1745 2.95829 51.5952 2.94713C51.7279 2.94385 51.781 3.0049 51.8239 3.13555C51.932 3.46381 52.0618 3.78223 52.1629 4.11311C52.2201 4.29957 52.3053 4.35734 52.4785 4.28381C51.9811 2.87294 51.4849 1.46404 50.9692 0ZM50.2752 2.67467C50.5039 2.02931 50.7257 1.40496 50.9681 0.721519C51.2082 1.40102 51.4294 2.028 51.6581 2.67467C51.1933 2.67467 50.7474 2.67467 50.2752 2.67467Z" fill="#010101"/>
<path d="M43.6576 24.0097C43.3066 22.1977 42.955 20.3857 42.6046 18.5731C41.8739 14.7961 41.1439 11.0185 40.4155 7.24084C40.3909 7.11413 40.3561 7.05242 40.2229 7.05373C39.2795 7.06227 38.3368 7.0603 37.3935 7.0557C37.2746 7.05504 37.2243 7.08656 37.1951 7.23296C36.3147 11.591 35.428 15.947 34.5424 20.3037C34.3646 21.1781 34.1851 22.052 33.9947 22.9823C33.9604 22.9146 33.9478 22.895 33.9398 22.8733C33.168 20.7718 32.3991 18.6689 31.6216 16.57C31.5547 16.3901 31.6479 16.3882 31.7399 16.3481C32.7238 15.9188 33.3864 15.1349 33.6894 13.9754C34.0382 12.6407 34.0416 11.2909 33.7186 9.95293C33.4213 8.72064 32.717 7.90721 31.6633 7.48441C31.003 7.21917 30.3204 7.08853 29.6275 7.07343C28.4492 7.04651 27.2698 7.06424 26.0909 7.05505C25.9469 7.05373 25.932 7.11873 25.9326 7.2566C25.9349 12.8633 25.9354 18.4693 25.9314 24.076C25.9314 24.2421 25.976 24.2782 26.1127 24.2769C26.9559 24.2704 27.7992 24.2664 28.6419 24.2789C28.8185 24.2815 28.8465 24.2152 28.8465 24.0327C28.8414 21.8688 28.8431 19.7049 28.8431 17.541C28.8431 17.4596 28.8431 17.3782 28.8431 17.2974C28.8906 17.3368 28.9066 17.3729 28.9191 17.4097C29.6795 19.6222 30.4404 21.834 31.1985 24.0478C31.2448 24.1824 31.2803 24.2796 31.4438 24.2789C33.1515 24.2704 34.8591 24.2717 36.5668 24.2769C36.6983 24.2776 36.752 24.2389 36.7743 24.0839C36.9001 23.2121 37.0379 22.3428 37.1648 21.471C37.1877 21.3147 37.2368 21.2589 37.3826 21.2609C38.2613 21.2701 39.1406 21.272 40.0193 21.2596C40.1845 21.2569 40.2206 21.3377 40.2451 21.4907C40.3858 22.3592 40.535 23.2258 40.6728 24.0957C40.6956 24.2402 40.7431 24.2802 40.8672 24.2776C41.3171 24.2691 41.7676 24.2743 42.2175 24.2743C42.7092 24.2743 43.2008 24.2743 43.7017 24.2743C43.6845 24.1699 43.6731 24.0892 43.6576 24.0097ZM30.5725 13.9781C30.1151 14.4823 29.544 14.5689 28.9403 14.5125C28.8311 14.5026 28.842 14.4258 28.842 14.3431C28.8437 12.967 28.8403 11.5903 28.8477 10.2142C28.8505 9.71856 28.8625 9.71724 29.3028 9.72249C29.5246 9.72512 29.7447 9.75598 29.9596 9.819C30.6503 10.0232 31.0367 10.6101 31.1105 11.5654C31.1231 11.7282 31.1259 11.8923 31.1339 12.0669C31.1191 12.7628 31.0476 13.4542 30.5725 13.9781ZM37.8503 18.5685C37.7234 18.5691 37.7582 18.4772 37.768 18.405C37.8857 17.5154 38.0109 16.6271 38.123 15.7369C38.3219 14.158 38.5135 12.5784 38.7084 10.9988C38.793 10.9699 38.7507 11.0703 38.7833 11.0953C38.9988 13.5953 39.307 16.0803 39.7255 18.5678C39.0914 18.5665 38.4706 18.5645 37.8503 18.5685Z" fill="#0C7A3F"/>
</svg>
